<?xml version="1.0" encoding="UTF-8"?>
<svg width="48px" height="48px" viewBox="0 0 48 48" version="1.1" xmlns="http://www.w3.org/2000/svg" xmlns:xlink="http://www.w3.org/1999/xlink">
    <!-- Generator: Sketch 50.2 (55047) - http://www.bohemiancoding.com/sketch -->
    <title>email</title>
    <desc>Created with Sketch.</desc>
    <defs></defs>
    <g id="email" stroke="none" stroke-width="1" fill="none" fill-rule="evenodd">
        <g id="icons8-read_message" transform="translate(1.000000, 1.000000)" fill="#1B1B1B" fill-rule="nonzero">
            <path d="M22.5,0 C21.5578125,0 19.828125,0.1652346 18.309375,1.434375 C17.5710942,2.053125 13.1378904,5.9519529 8.803125,9.7875 C4.4683596,13.6230471 0.309375,17.325 0.309375,17.325 C0.1125,17.49375 0,17.7398442 0,18 L0,44.1 C0,44.5957029 0.4042971,45 0.9,45 L44.1,45 C44.5957029,45 45,44.5957029 45,44.1 L45,18 C45,17.7398442 44.8875,17.49375 44.690625,17.325 C44.690625,17.325 40.5703125,13.6652346 36.253125,9.84375 C31.9359375,6.0222654 27.4851567,2.0988279 26.690625,1.434375 C25.171875,0.1617192 23.4421875,0 22.5,0 Z M22.5,1.8 C23.2417971,1.8 24.4792971,1.9265625 25.5375,2.8125 C26.1808596,3.3503904 30.7265625,7.3757817 35.04375,11.19375 C39.2027346,14.8710942 42.9117192,18.1371096 43.2,18.39375 L43.2,18.45 L37.8,22.725 L37.8,16.2 C37.8,15.7042971 37.3957029,15.3 36.9,15.3 L8.1,15.3 C8.071875,15.3 8.04375,15.3 8.015625,15.3 C7.9875,15.3 7.959375,15.3 7.93125,15.3 C7.5023442,15.3808596 7.1929692,15.7605471 7.2,16.2 L7.2,22.725 L1.8,18.45 L1.8,18.39375 C2.0917971,18.1371096 5.8359375,14.8289067 10.0125,11.1375 C14.3472654,7.3054692 18.8964846,3.2835942 19.4625,2.8125 C20.5207029,1.9265625 21.7617192,1.8 22.5,1.8 Z M9,17.1 L36,17.1 L36,24.159375 L30.290625,28.659375 C29.1515625,27.7699221 27.5976567,26.5464846 27.028125,26.1 L31.5,26.1 C31.8234375,26.1035154 32.1257817,25.9347654 32.2910154,25.6535154 C32.4527346,25.3722654 32.4527346,25.0277346 32.2910154,24.7464846 C32.1257817,24.4652346 31.8234375,24.2964846 31.5,24.3 L13.5,24.3 C13.471875,24.3 13.44375,24.3 13.415625,24.3 C13.3875,24.3 13.359375,24.3 13.33125,24.3 C12.8355471,24.3457029 12.4699221,24.7886721 12.515625,25.284375 C12.5613279,25.7800779 13.0042971,26.1457029 13.5,26.1 L17.971875,26.1 C17.4023442,26.5464846 15.8484375,27.7699221 14.709375,28.659375 L9,24.159375 L9,17.1 Z M13.246875,19.8 C12.7511721,19.8703125 12.403125,20.3308596 12.4734375,20.8265625 C12.54375,21.3222654 13.0042971,21.6703125 13.5,21.6 L31.5,21.6 C31.8234375,21.6035154 32.1257817,21.4347654 32.2910154,21.1535154 C32.4527346,20.8722654 32.4527346,20.5277346 32.2910154,20.2464846 C32.1257817,19.9652346 31.8234375,19.7964846 31.5,19.8 L13.5,19.8 C13.471875,19.8 13.44375,19.8 13.415625,19.8 C13.3875,19.8 13.359375,19.8 13.33125,19.8 C13.303125,19.8 13.275,19.8 13.246875,19.8 Z M1.8,20.728125 L13.246875,29.784375 C8.4902346,33.5039067 3.1183596,37.6945317 1.8,38.728125 L1.8,20.728125 Z M43.2,20.728125 L43.2,38.728125 C41.8816404,37.6945317 36.5097654,33.5039067 31.753125,29.784375 L43.2,20.728125 Z M22.5,26.1 C23.1644529,26.1 24.3773442,26.2898442 25.5375,27.196875 C26.8664067,28.2339846 42.7464846,40.6511721 43.2,41.00625 L43.2,43.2 L1.8,43.2 L1.8,41.00625 C2.2535154,40.6511721 18.1335942,28.2339846 19.4625,27.196875 C20.6226567,26.2898442 21.8355471,26.1 22.5,26.1 Z" id="Shape"></path>
        </g>
    </g>
</svg>