<?xml version="1.0" encoding="UTF-8"?>
<svg width="48px" height="45px" viewBox="0 0 48 45" version="1.1" xmlns="http://www.w3.org/2000/svg" xmlns:xlink="http://www.w3.org/1999/xlink">
    <!-- Generator: Sketch 50.2 (55047) - http://www.bohemiancoding.com/sketch -->
    <title>mastodon</title>
    <desc>Created with Sketch.</desc>
    <defs></defs>
    <g id="mastodon" stroke="none" stroke-width="1" fill="none" fill-rule="evenodd">
        <g id="icons8-elephant" transform="translate(1.000000, 1.000000)" fill="#1B1B1B" fill-rule="nonzero">
            <path d="M25,0 C23.640625,0 22.445313,0.546875 21.34375,1.28125 C21.292969,1.273438 16.300781,0.503906 12.84375,1 C9.789063,1.4375 6.566406,2.574219 4.09375,5.1875 C1.621094,7.800781 0,11.84375 0,17.78125 C0,23.347656 2.015625,30.09375 2.0625,30.25 C2.0625,30.25 2.09375,30.34375 2.09375,30.34375 L3,42.09375 C3.046875,42.609375 3.480469,43.003906 4,43 L11,43 C11.519531,43.003906 11.953125,42.609375 12,42.09375 L12.90625,31.6875 C13.675781,31.808594 14.695313,32 16,32 C17.3125,32 18.316406,31.765625 19.09375,31.625 L20,42.09375 C20.046875,42.609375 20.480469,43.003906 21,43 L28,43 C28.550781,43 29,42.550781 29,42 C29,41.820313 29,41.671875 29,41.5 C29.035156,34.730469 29.722656,31.246094 30.53125,28.75 C31.234375,26.578125 32.027344,24.882813 32.625,22.5625 C34.203125,23.222656 35.84375,23.699219 36.90625,24.34375 C38.242188,25.152344 39.082031,26.160156 39,29.15625 C38.972656,30.148438 38.769531,30.957031 38.5,31.40625 C38.230469,31.855469 38.042969,32 37.46875,32 C36.96875,32 36.414063,31.585938 35.96875,31.03125 C35.523438,30.476563 35.28125,29.9375 35.28125,29.9375 C35.164063,29.65625 34.929688,29.441406 34.636719,29.359375 C34.34375,29.273438 34.03125,29.324219 33.78125,29.5 L31.4375,31.1875 C31.078125,31.453125 30.9375,31.925781 31.09375,32.34375 C31.09375,32.34375 32.957031,37 38,37 C39.585938,37 40.984375,36.265625 42.03125,35.09375 C43.078125,33.921875 43.832031,32.351563 44.40625,30.4375 C45.558594,26.613281 46,21.4375 46,15.59375 C46,9.605469 44.199219,5.660156 41.6875,3.25 C39.175781,0.839844 36.035156,0 33.53125,0 C31.105469,0 29.730469,0.785156 29.03125,1.25 C28.371094,0.761719 27.144531,0 25,0 Z M25,2 C27.171875,2 28.3125,3.125 28.3125,3.125 C28.675781,3.488281 29.257813,3.515625 29.65625,3.1875 C29.65625,3.1875 30.972656,2 33.53125,2 C35.59375,2 38.207031,2.695313 40.28125,4.6875 C42.355469,6.679688 44,10 44,15.59375 C44,21.332031 43.546875,26.367188 42.5,29.84375 C41.976563,31.582031 41.316406,32.9375 40.5625,33.78125 C39.808594,34.625 39.023438,35 38,35 C34.875,35 33.78125,33.082031 33.375,32.25 L34.0625,31.75 C34.207031,31.988281 34.191406,32.011719 34.40625,32.28125 C35.03125,33.0625 36.042969,34 37.46875,34 C38.660156,34 39.671875,33.351563 40.21875,32.4375 C40.765625,31.523438 40.96875,30.386719 41,29.1875 C41.09375,25.722656 39.730469,23.710938 37.9375,22.625 C36.144531,21.539063 34.113281,21.175781 32.46875,20.3125 C32.191406,20.167969 31.863281,20.164063 31.578125,20.300781 C31.296875,20.433594 31.09375,20.695313 31.03125,21 C30.503906,23.816406 29.519531,25.359375 28.625,28.125 C27.824219,30.597656 27.222656,34.175781 27.09375,40.0625 C26.617188,40.195313 26.253906,40.535156 26.09375,41 L25.90625,41 C25.703125,40.414063 25.15625,40 24.5,40 C23.84375,40 23.296875,40.414063 23.09375,41 L21.90625,41 L21,30.4375 C20.976563,30.152344 20.835938,29.890625 20.609375,29.71875 C20.382813,29.546875 20.09375,29.476563 19.8125,29.53125 C19.8125,29.53125 17.378906,30 16,30 C14.59375,30 12.15625,29.59375 12.15625,29.59375 C11.882813,29.550781 11.597656,29.621094 11.378906,29.792969 C11.160156,29.964844 11.023438,30.222656 11,30.5 L10.1875,40.03125 C9.667969,40.136719 9.265625,40.507813 9.09375,41 L8.90625,41 C8.703125,40.414063 8.15625,40 7.5,40 C6.84375,40 6.296875,40.414063 6.09375,41 L4.9375,41 L4.0625,29.96875 C4.058594,29.90625 4.046875,29.84375 4.03125,29.78125 C4.03125,29.78125 2,22.902344 2,17.78125 C2,12.203125 3.460938,8.75 5.53125,6.5625 C7.601563,4.375 10.382813,3.398438 13.15625,3 C15.117188,2.71875 17.546875,2.886719 19.25,3.0625 C17.871094,4.761719 17,6.925781 17,9.0625 C17,16.832031 20.628906,23.847656 25.625,25.9375 C26.058594,26.105469 26.550781,25.949219 26.8125,25.5625 C27.046875,25.214844 27.285156,24.75 27.59375,24.09375 C27.902344,23.4375 28.269531,22.636719 28.65625,21.71875 C29.429688,19.878906 30.292969,17.660156 30.96875,15.6875 C31.148438,15.160156 30.871094,14.585938 30.34375,14.40625 C29.816406,14.226563 29.242188,14.503906 29.0625,15.03125 C28.410156,16.941406 27.570313,19.136719 26.8125,20.9375 C26.433594,21.839844 26.074219,22.625 25.78125,23.25 C25.714844,23.394531 25.71875,23.40625 25.65625,23.53125 C22.171875,21.488281 19,15.710938 19,9.0625 C19,7.460938 19.707031,5.621094 20.84375,4.25 C21.980469,2.878906 23.488281,2 25,2 Z M39,12 C38.445313,12 38,12.449219 38,13 C38,13.550781 38.445313,14 39,14 C39.554688,14 40,13.550781 40,13 C40,12.449219 39.554688,12 39,12 Z" id="Shape"></path>
        </g>
    </g>
</svg>