<?xml version="1.0" encoding="UTF-8"?>
<svg width="42px" height="42px" viewBox="0 0 42 42" version="1.1" xmlns="http://www.w3.org/2000/svg" xmlns:xlink="http://www.w3.org/1999/xlink">
    <!-- Generator: Sketch 50.2 (55047) - http://www.bohemiancoding.com/sketch -->
    <title>rss</title>
    <desc>Created with Sketch.</desc>
    <defs></defs>
    <g id="rss" stroke="none" stroke-width="1" fill="none" fill-rule="evenodd">
        <g id="icons8-rss" transform="translate(1.000000, 1.000000)" fill="#1B1B1B" fill-rule="nonzero">
            <path d="M4.76190476,0 C2.143318,0 0,2.143318 0,4.76190476 L0,35.2380952 C0,37.8566819 2.143318,40 4.76190476,40 L35.2380952,40 C37.8566819,40 40,37.8566819 40,35.2380952 L40,4.76190476 C40,2.143318 37.8566819,0 35.2380952,0 L4.76190476,0 Z M4.84210526,2 L35.1578947,2 C36.7385638,2 38,3.26143631 38,4.84210526 L38,35.1578947 C38,36.7385638 36.7385638,38 35.1578947,38 L4.84210526,38 C3.26143631,38 2,36.7385638 2,35.1578947 L2,4.84210526 C2,3.26143631 3.26143631,2 4.84210526,2 Z M10.3246183,7 C9.13750612,7 7.9709266,7.0878516 6.83023462,7.2571055 C6.48771886,7.3041406 6.19687058,7.53154253 6.06859852,7.85259645 C5.94032646,8.17365037 5.9944051,8.53886244 6.21021271,8.80896689 C6.42602032,9.07907135 6.7702879,9.21242874 7.1117364,9.15818609 C8.15988777,9.00266579 9.2325661,8.92172375 10.3246183,8.92172375 C22.2811914,8.92172375 31.9533943,18.5930522 31.9533943,30.5486222 C31.9533943,31.6416766 31.8732872,32.7138937 31.7169319,33.7615041 C31.651343,34.1074377 31.7801947,34.4615414 32.0527654,34.684425 C32.3253362,34.9073087 32.6979748,34.9632783 33.0239951,34.8303019 C33.3500154,34.6973255 33.5772063,34.3966987 33.616136,34.0467609 C33.7864689,32.905528 33.875118,31.7366559 33.875118,30.5486222 C33.875118,17.5544547 23.3197073,7 10.3246183,7 Z M10.3277912,16 C9.07813367,16 7.86490815,16.1658457 6.7114223,16.4766778 C6.37987281,16.565851 6.1210818,16.82513 6.03253333,17.1568469 C5.94398487,17.4885638 6.03913156,17.8423229 6.28213258,18.0848665 C6.5251336,18.3274102 6.87907131,18.4218903 7.21062079,18.332717 C8.20370036,18.0651103 9.24831961,17.9217238 10.3277912,17.9217238 C16.9677302,17.9217238 22.3348116,23.3165683 22.3348116,30.0038114 C22.3348116,31.0587465 22.2011931,32.081165 21.9500911,33.0552983 C21.8510142,33.3919937 21.9433759,33.7559229 22.1910206,34.0046237 C22.4386654,34.2533246 22.8021982,34.3472342 23.1393122,34.2495911 C23.4764262,34.1519479 23.7334938,33.8782851 23.8098844,33.5357292 C24.1007085,32.4074967 24.2565353,31.2222746 24.2565353,30.0038114 C24.2565353,22.2838906 18.0123811,16 10.3277912,16 Z M10.5,26 C8.026466,26 6,28.023266 6,30.5 C6,32.970962 8.023711,35 10.5,35 C12.976289,35 15,32.970962 15,30.5 C15,28.023266 12.973534,26 10.5,26 Z M10.5,28 C11.898466,28 13,29.098734 13,30.5 C13,31.891038 11.895711,33 10.5,33 C9.104289,33 8,31.891038 8,30.5 C8,29.098734 9.101534,28 10.5,28 Z" id="Shape"></path>
        </g>
    </g>
</svg>