<?xml version="1.0" standalone="no"?><!-- Generator: Gravit.io --><svg xmlns="http://www.w3.org/2000/svg" xmlns:xlink="http://www.w3.org/1999/xlink" style="isolation:isolate" viewBox="0 0 1330 500" width="1330" height="500"><defs><clipPath id="_clipPath_wK1DPDRhhAnTnOEn4WfJUSaqzNpcuxIP"><rect width="1330" height="500"/></clipPath></defs><g clip-path="url(#_clipPath_wK1DPDRhhAnTnOEn4WfJUSaqzNpcuxIP)"><path d=" M 139.724 434.5 L 136.364 434.5 L 136.364 445.126 C 134.726 442.522 131.492 441.094 128.384 441.094 L 128.132 441.094 C 121.916 441.094 117.8 446.176 117.8 453.022 L 117.8 453.358 C 117.8 460.204 121.916 465.286 128.132 465.286 L 128.384 465.286 C 131.492 465.286 134.726 463.858 136.364 461.254 L 136.364 464.74 L 139.724 464.74 L 139.724 434.5 Z  M 128.636 462.178 C 124.31 462.178 121.16 458.776 121.16 453.274 L 121.16 453.106 C 121.16 447.604 124.31 444.202 128.636 444.202 L 128.888 444.202 C 133.214 444.202 136.364 447.604 136.364 453.106 L 136.364 453.274 C 136.364 458.776 133.214 462.178 128.888 462.178 L 128.636 462.178 Z  M 156.062 441.094 C 149.426 441.094 145.184 446.176 145.184 453.022 L 145.184 453.358 C 145.184 460.204 149.426 465.286 156.062 465.286 L 156.314 465.286 C 162.95 465.286 167.192 460.204 167.192 453.358 L 167.192 453.022 C 167.192 446.176 162.95 441.094 156.314 441.094 L 156.062 441.094 Z  M 156.314 444.202 C 160.724 444.202 163.832 447.604 163.832 453.106 L 163.832 453.274 C 163.832 458.776 160.724 462.178 156.314 462.178 L 156.062 462.178 C 151.652 462.178 148.544 458.776 148.544 453.274 L 148.544 453.106 C 148.544 447.604 151.652 444.202 156.062 444.202 L 156.314 444.202 Z  M 197.096 441.094 C 193.778 441.094 191.216 442.9 189.83 445.588 C 188.696 442.732 186.176 441.094 182.69 441.094 L 182.606 441.094 C 179.624 441.094 177.314 442.564 176.012 444.916 L 176.012 441.64 L 172.652 441.64 L 172.652 464.74 L 176.012 464.74 L 176.012 453.106 C 176.012 447.772 178.196 444.202 182.27 444.202 L 182.354 444.202 C 185.378 444.202 187.142 446.176 187.142 449.494 L 187.142 464.74 L 190.502 464.74 L 190.502 453.106 C 190.502 447.772 192.686 444.202 196.76 444.202 L 196.844 444.202 C 199.868 444.202 201.632 446.176 201.632 449.494 L 201.632 464.74 L 204.992 464.74 L 204.992 449.494 C 204.992 444.286 202.052 441.094 197.18 441.094 L 197.096 441.094 Z  M 220.574 441.094 C 216.752 441.094 213.308 442.732 211.25 445 L 213.308 447.226 C 214.778 445.672 217.592 444.202 220.238 444.202 L 220.364 444.202 C 224.06 444.202 225.992 445.84 225.992 449.41 L 225.992 450.46 C 215.198 450.46 210.242 452.896 210.242 458.188 C 210.242 462.43 213.308 465.286 217.928 465.286 L 218.012 465.286 C 221.456 465.286 224.48 463.564 225.992 460.876 L 225.992 464.74 L 229.352 464.74 L 229.352 449.914 C 229.352 444.034 226.286 441.094 220.616 441.094 L 220.574 441.094 Z  M 218.096 462.178 C 215.324 462.178 213.602 460.708 213.602 458.356 C 213.602 454.954 217.34 453.442 225.992 453.4 C 225.95 458.524 222.674 462.178 218.138 462.178 L 218.096 462.178 Z  M 238.34 434.5 C 236.954 434.5 236.072 435.298 236.072 436.516 C 236.072 437.776 236.954 438.574 238.34 438.574 C 239.684 438.574 240.566 437.776 240.566 436.516 C 240.566 435.298 239.684 434.5 238.34 434.5 Z  M 240.02 464.74 L 240.02 441.64 L 236.66 441.64 L 236.66 464.74 L 240.02 464.74 Z  M 257.996 441.094 C 254.888 441.094 252.116 442.648 250.646 445.042 L 250.646 441.64 L 247.286 441.64 L 247.286 464.74 L 250.646 464.74 L 250.646 453.106 C 250.646 447.772 253.46 444.202 257.66 444.202 L 257.744 444.202 C 261.188 444.202 262.952 446.092 262.952 449.746 L 262.952 464.74 L 266.312 464.74 L 266.312 449.746 C 266.312 444.202 263.33 441.094 258.08 441.094 L 257.996 441.094 Z  M 39.554 441.64 L 35.942 441.64 L 28.718 461.086 L 21.452 441.64 L 17.84 441.64 L 26.66 464.74 L 27.332 464.74 L 26.954 465.748 C 25.232 470.41 24.266 471.838 22.796 471.838 C 22.082 471.838 21.494 471.586 20.57 470.872 L 18.47 473.14 C 19.772 474.358 21.158 474.946 22.628 474.946 C 25.694 474.946 27.584 472.93 29.642 467.554 L 39.554 441.64 Z  M 52.532 441.094 C 45.896 441.094 41.654 446.176 41.654 453.022 L 41.654 453.358 C 41.654 460.204 45.896 465.286 52.532 465.286 L 52.784 465.286 C 59.42 465.286 63.662 460.204 63.662 453.358 L 63.662 453.022 C 63.662 446.176 59.42 441.094 52.784 441.094 L 52.532 441.094 Z  M 52.784 444.202 C 57.194 444.202 60.302 447.604 60.302 453.106 L 60.302 453.274 C 60.302 458.776 57.194 462.178 52.784 462.178 L 52.532 462.178 C 48.122 462.178 45.014 458.776 45.014 453.274 L 45.014 453.106 C 45.014 447.604 48.122 444.202 52.532 444.202 L 52.784 444.202 Z  M 87.308 441.64 L 83.948 441.64 L 83.948 453.274 C 83.948 458.608 81.218 462.178 77.144 462.178 L 77.06 462.178 C 74.036 462.178 72.272 460.204 72.272 456.886 L 72.272 441.64 L 68.912 441.64 L 68.912 456.886 C 68.912 462.094 71.852 465.286 76.724 465.286 L 76.808 465.286 C 79.832 465.286 82.52 463.732 83.948 461.338 L 83.948 464.74 L 87.308 464.74 L 87.308 441.64 Z  M 104.318 441.094 C 101.294 441.094 98.606 442.732 97.178 445.294 L 97.178 441.64 L 93.818 441.64 L 93.818 464.74 L 97.178 464.74 L 97.178 453.526 C 97.178 447.856 99.908 444.202 104.654 444.202 L 105.158 444.202 L 105.158 441.136 C 104.78 441.094 104.57 441.094 104.36 441.094 L 104.318 441.094 Z  M 109.61 465.286 C 110.954 465.286 111.92 464.446 111.92 463.06 C 111.92 461.716 110.954 460.876 109.61 460.876 C 108.224 460.876 107.258 461.716 107.258 463.06 C 107.258 464.446 108.224 465.286 109.61 465.286 Z " fill="rgb(21,70,82)"/><g><g><path d=" M 184.995 30 L 184.995 136.458 L 167.091 154.605 C 163.507 158.185 169.922 172.284 180.333 172.331 L 362.339 172.331 C 372.749 172.284 379.136 158.161 375.581 154.605 L 357.677 136.45 L 357.677 30 L 184.995 30 Z " fill="rgb(199,212,204)"/><path d=" M 193.359 136.749 L 349.337 136.749 L 368.201 154.653 C 368.849 155.32 369.212 156.197 369.221 157.109 C 369.271 157.968 368.938 158.807 368.306 159.416 C 367.674 160.024 366.802 160.344 365.91 160.296 L 176.794 160.296 C 175.902 160.344 175.03 160.024 174.398 159.416 C 173.766 158.807 173.433 157.968 173.483 157.109 C 173.483 156.246 173.867 155.265 174.503 154.653 L 193.359 136.749 Z " fill="rgb(164,184,182)"/><path d=" M 191.902 36.907 L 350.801 36.907 L 350.801 130.605 L 191.902 130.605 L 191.902 36.907 Z " fill="rgb(164,184,182)"/><path d=" M 280.435 58.59 C 271.511 58.59 264.249 65.852 264.249 74.776 C 264.249 83.7 271.511 90.962 280.435 90.962 C 289.359 90.962 296.621 83.7 296.621 74.776 C 296.621 65.852 289.359 58.59 280.435 58.59 Z  M 287.588 81.929 L 273.282 67.623 C 277.231 63.674 283.639 63.674 287.589 67.623 C 291.539 71.572 291.538 77.98 287.588 81.929 Z  M 263.715 81.973 L 246.041 99.647 L 246.041 105.717 L 263.104 88.653 C 263.501 88.27 264.132 88.275 264.522 88.666 C 264.913 89.056 264.918 89.687 264.535 90.084 L 247.052 107.566 L 248.657 109.171 L 255.564 109.171 L 259.191 105.543 L 259.191 103.101 L 261.632 103.101 L 265.261 99.473 L 265.261 98.043 L 266.691 98.043 L 269.307 95.427 L 269.307 93.997 L 270.738 93.997 L 273.238 91.496 C 268.97 89.647 265.565 86.242 263.715 81.973 Z " fill="rgb(48,67,73)"/></g><g><path d=" M 538.994 190.835 L 480.866 190.835 C 472.608 190.835 465.86 197.547 465.86 205.841 L 465.86 318.16 C 465.86 326.418 472.572 333.166 480.866 333.166 L 538.994 333.166 C 547.252 333.166 554 326.454 554 318.16 L 554 205.806 C 554 197.547 547.288 190.835 538.994 190.835 L 538.994 190.835 Z " fill="rgb(199,212,204)"/><path d=" M 548.447 318.125 C 548.447 323.326 544.195 327.578 538.994 327.578 L 480.866 327.578 C 475.665 327.578 471.413 323.326 471.413 318.125 L 471.413 205.806 C 471.413 200.604 475.665 196.352 480.866 196.352 L 538.994 196.352 C 544.195 196.352 548.447 200.604 548.447 205.806 L 548.447 318.125 L 548.447 318.125 Z " fill="rgb(164,184,182)"/><path d=" M 519.034 239.837 C 510.11 239.837 502.849 247.098 502.849 256.023 C 502.849 264.947 510.11 272.208 519.034 272.208 C 527.959 272.208 535.22 264.947 535.22 256.023 C 535.22 247.098 527.959 239.837 519.034 239.837 Z  M 526.187 263.176 L 511.881 248.87 C 515.831 244.92 522.238 244.92 526.188 248.87 C 530.139 252.819 530.138 259.226 526.187 263.176 Z  M 502.315 263.219 L 484.64 280.894 L 484.64 286.963 L 501.704 269.9 C 502.101 269.516 502.731 269.522 503.122 269.912 C 503.512 270.302 503.517 270.933 503.134 271.33 L 485.651 288.813 L 487.256 290.417 L 494.163 290.417 L 497.791 286.79 L 497.791 284.347 L 500.232 284.347 L 503.86 280.72 L 503.86 279.289 L 505.291 279.289 L 507.907 276.673 L 507.907 275.243 L 509.337 275.243 L 511.838 272.742 C 507.569 270.893 504.164 267.488 502.315 263.219 Z " fill="rgb(48,67,73)"/></g><g><path d=" M 207.493 285.144 C 186.161 285.144 168.106 297.911 159.431 315.949 C 154.813 312.771 149.458 310.456 143.453 310.456 C 128.209 310.456 116.048 322.519 115.205 337.555 C 99.956 343.048 88.871 357.271 88.871 374.369 C 88.871 396.162 106.574 413.866 128.368 413.866 L 256.962 413.866 C 277.03 413.866 293.392 397.504 293.392 377.436 C 293.392 358.821 279.108 344.026 261.053 341.899 C 261.114 340.909 261.306 339.985 261.306 338.962 C 261.306 309.307 237.148 285.14 207.493 285.14 L 207.493 285.144 Z " fill="rgb(210,216,237)"/><g><path d=" M 192.735 322.44 C 184.042 322.44 176.929 329.553 176.929 338.247 L 176.929 351.419 L 169.026 351.419 L 169.026 385.666 L 216.445 385.666 L 216.445 351.419 L 208.542 351.419 L 208.542 338.247 C 208.542 329.553 201.429 322.44 192.735 322.44 Z  M 192.735 327.709 C 198.581 327.709 203.273 332.401 203.273 338.247 L 203.273 351.419 L 182.198 351.419 L 182.198 338.247 C 182.198 332.401 186.89 327.709 192.735 327.709 Z " fill-rule="evenodd" fill="rgb(21,70,82)"/></g></g><path d=" M 493.244 167.871 C 465.682 125.09 420.054 95.026 367.179 88.499 L 367.179 88.499 Q 367.278 90.134 367.226 91.613 Q 367.161 93.442 366.844 95.538 C 416.124 101.782 458.801 129.329 485.341 168.647 L 458.774 160.15 L 456.568 167.023 L 503.564 182.06 L 493.523 133.749 L 486.458 135.217 L 493.244 167.871 Z " fill="rgb(21,70,82)"/><path d=" M 181.104 200.807 C 173.816 220.094 169.827 240.994 169.827 262.819 L 169.827 262.819 C 169.827 270.045 170.264 277.17 171.113 284.168 Q 171.86 283.633 172.593 283.172 Q 174.81 281.774 177.77 280.494 C 177.163 274.685 176.853 268.788 176.853 262.819 L 176.853 262.819 C 176.853 239.884 181.441 218.013 189.75 198.074 L 196.167 230.307 L 203.24 228.904 L 193.609 180.504 L 156.229 212.712 L 160.936 218.181 L 181.104 200.807 Z " fill="rgb(21,70,82)"/><path d=" M 298.803 432.401 C 313.584 436.358 329.599 438.47 345.477 438.47 C 413.346 438.47 472.277 399.894 501.52 343.491 L 501.52 343.491 Q 497.878 342.864 495.042 341.835 Q 494.799 341.746 494.551 341.651 C 466.235 395.043 410.074 431.444 345.477 431.444 C 329.354 431.444 313.116 429.176 298.21 424.943 L 329.255 418.202 L 327.723 411.145 L 279.508 421.618 L 312.357 458.437 L 317.746 453.633 L 298.803 432.401 Z " fill="rgb(21,70,82)"/></g><g><path d=" M 871.13 434.5 L 867.77 434.5 L 867.77 445.126 C 866.132 442.522 862.898 441.094 859.79 441.094 L 859.538 441.094 C 853.322 441.094 849.206 446.176 849.206 453.022 L 849.206 453.358 C 849.206 460.204 853.322 465.286 859.538 465.286 L 859.79 465.286 C 862.898 465.286 866.132 463.858 867.77 461.254 L 867.77 464.74 L 871.13 464.74 L 871.13 434.5 Z  M 860.042 462.178 C 855.716 462.178 852.566 458.776 852.566 453.274 L 852.566 453.106 C 852.566 447.604 855.716 444.202 860.042 444.202 L 860.294 444.202 C 864.62 444.202 867.77 447.604 867.77 453.106 L 867.77 453.274 C 867.77 458.776 864.62 462.178 860.294 462.178 L 860.042 462.178 Z  M 887.468 441.094 C 880.832 441.094 876.59 446.176 876.59 453.022 L 876.59 453.358 C 876.59 460.204 880.832 465.286 887.468 465.286 L 887.72 465.286 C 894.356 465.286 898.598 460.204 898.598 453.358 L 898.598 453.022 C 898.598 446.176 894.356 441.094 887.72 441.094 L 887.468 441.094 Z  M 887.72 444.202 C 892.13 444.202 895.238 447.604 895.238 453.106 L 895.238 453.274 C 895.238 458.776 892.13 462.178 887.72 462.178 L 887.468 462.178 C 883.058 462.178 879.95 458.776 879.95 453.274 L 879.95 453.106 C 879.95 447.604 883.058 444.202 887.468 444.202 L 887.72 444.202 Z  M 928.502 441.094 C 925.184 441.094 922.622 442.9 921.236 445.588 C 920.102 442.732 917.582 441.094 914.096 441.094 L 914.012 441.094 C 911.03 441.094 908.72 442.564 907.418 444.916 L 907.418 441.64 L 904.058 441.64 L 904.058 464.74 L 907.418 464.74 L 907.418 453.106 C 907.418 447.772 909.602 444.202 913.676 444.202 L 913.76 444.202 C 916.784 444.202 918.548 446.176 918.548 449.494 L 918.548 464.74 L 921.908 464.74 L 921.908 453.106 C 921.908 447.772 924.092 444.202 928.166 444.202 L 928.25 444.202 C 931.274 444.202 933.038 446.176 933.038 449.494 L 933.038 464.74 L 936.398 464.74 L 936.398 449.494 C 936.398 444.286 933.458 441.094 928.586 441.094 L 928.502 441.094 Z  M 951.98 441.094 C 948.158 441.094 944.714 442.732 942.656 445 L 944.714 447.226 C 946.184 445.672 948.998 444.202 951.644 444.202 L 951.77 444.202 C 955.466 444.202 957.398 445.84 957.398 449.41 L 957.398 450.46 C 946.604 450.46 941.648 452.896 941.648 458.188 C 941.648 462.43 944.714 465.286 949.334 465.286 L 949.418 465.286 C 952.862 465.286 955.886 463.564 957.398 460.876 L 957.398 464.74 L 960.758 464.74 L 960.758 449.914 C 960.758 444.034 957.692 441.094 952.022 441.094 L 951.98 441.094 Z  M 949.502 462.178 C 946.73 462.178 945.008 460.708 945.008 458.356 C 945.008 454.954 948.746 453.442 957.398 453.4 C 957.356 458.524 954.08 462.178 949.544 462.178 L 949.502 462.178 Z  M 969.746 434.5 C 968.36 434.5 967.478 435.298 967.478 436.516 C 967.478 437.776 968.36 438.574 969.746 438.574 C 971.09 438.574 971.972 437.776 971.972 436.516 C 971.972 435.298 971.09 434.5 969.746 434.5 Z  M 971.426 464.74 L 971.426 441.64 L 968.066 441.64 L 968.066 464.74 L 971.426 464.74 Z  M 989.402 441.094 C 986.294 441.094 983.522 442.648 982.052 445.042 L 982.052 441.64 L 978.692 441.64 L 978.692 464.74 L 982.052 464.74 L 982.052 453.106 C 982.052 447.772 984.866 444.202 989.066 444.202 L 989.15 444.202 C 992.594 444.202 994.358 446.092 994.358 449.746 L 994.358 464.74 L 997.718 464.74 L 997.718 449.746 C 997.718 444.202 994.736 441.094 989.486 441.094 L 989.402 441.094 Z  M 803.804 441.094 C 800.486 441.094 797.924 442.9 796.538 445.588 C 795.404 442.732 792.884 441.094 789.398 441.094 L 789.314 441.094 C 786.332 441.094 784.022 442.564 782.72 444.916 L 782.72 441.64 L 779.36 441.64 L 779.36 464.74 L 782.72 464.74 L 782.72 453.106 C 782.72 447.772 784.904 444.202 788.978 444.202 L 789.062 444.202 C 792.086 444.202 793.85 446.176 793.85 449.494 L 793.85 464.74 L 797.21 464.74 L 797.21 453.106 C 797.21 447.772 799.394 444.202 803.468 444.202 L 803.552 444.202 C 806.576 444.202 808.34 446.176 808.34 449.494 L 808.34 464.74 L 811.7 464.74 L 811.7 449.494 C 811.7 444.286 808.76 441.094 803.888 441.094 L 803.804 441.094 Z  M 836.984 441.64 L 833.372 441.64 L 826.148 461.086 L 818.882 441.64 L 815.27 441.64 L 824.09 464.74 L 824.762 464.74 L 824.384 465.748 C 822.662 470.41 821.696 471.838 820.226 471.838 C 819.512 471.838 818.924 471.586 818 470.872 L 815.9 473.14 C 817.202 474.358 818.588 474.946 820.058 474.946 C 823.124 474.946 825.014 472.93 827.072 467.554 L 836.984 441.64 Z  M 841.016 465.286 C 842.36 465.286 843.326 464.446 843.326 463.06 C 843.326 461.716 842.36 460.876 841.016 460.876 C 839.63 460.876 838.664 461.716 838.664 463.06 C 838.664 464.446 839.63 465.286 841.016 465.286 Z " fill="rgb(21,70,82)"/><g><g><path d=" M 918.995 30.051 L 918.995 136.509 L 901.091 154.656 C 897.507 158.236 903.922 172.335 914.333 172.382 L 1096.339 172.382 C 1106.749 172.335 1113.136 158.212 1109.581 154.656 L 1091.677 136.501 L 1091.677 30.051 L 918.995 30.051 Z " fill="rgb(199,212,204)"/><path d=" M 927.359 136.799 L 1083.337 136.799 L 1102.201 154.703 C 1102.849 155.371 1103.212 156.247 1103.221 157.16 C 1103.271 158.019 1102.938 158.858 1102.306 159.467 C 1101.674 160.075 1100.802 160.395 1099.91 160.347 L 910.794 160.347 C 909.902 160.395 909.03 160.075 908.398 159.467 C 907.766 158.858 907.433 158.019 907.483 157.16 C 907.483 156.297 907.867 155.316 908.503 154.703 L 927.359 136.799 Z " fill="rgb(164,184,182)"/><path d=" M 925.902 36.958 L 1084.801 36.958 L 1084.801 130.656 L 925.902 130.656 L 925.902 36.958 Z " fill="rgb(164,184,182)"/><path d=" M 1014.435 58.641 C 1005.511 58.641 998.249 65.903 998.249 74.827 C 998.249 83.751 1005.511 91.013 1014.435 91.013 C 1023.359 91.013 1030.621 83.751 1030.621 74.827 C 1030.621 65.903 1023.359 58.641 1014.435 58.641 Z  M 1021.588 81.98 L 1007.282 67.674 C 1011.231 63.725 1017.639 63.725 1021.589 67.674 C 1025.539 71.623 1025.538 78.031 1021.588 81.98 Z  M 997.715 82.023 L 980.041 99.698 L 980.041 105.768 L 997.104 88.704 C 997.501 88.321 998.132 88.326 998.522 88.716 C 998.913 89.107 998.918 89.738 998.535 90.135 L 981.052 107.617 L 982.657 109.221 L 989.564 109.221 L 993.191 105.594 L 993.191 103.152 L 995.632 103.152 L 999.261 99.524 L 999.261 98.094 L 1000.691 98.094 L 1003.307 95.478 L 1003.307 94.047 L 1004.738 94.047 L 1007.238 91.547 C 1002.97 89.697 999.565 86.292 997.715 82.023 Z " fill="rgb(48,67,73)"/></g><g><path d=" M 1272.994 190.885 L 1214.866 190.885 C 1206.608 190.885 1199.86 197.598 1199.86 205.892 L 1199.86 318.21 C 1199.86 326.469 1206.572 333.217 1214.866 333.217 L 1272.994 333.217 C 1281.252 333.217 1288 326.504 1288 318.21 L 1288 205.857 C 1288 197.598 1281.288 190.885 1272.994 190.885 L 1272.994 190.885 Z " fill="rgb(199,212,204)"/><path d=" M 1282.447 318.175 C 1282.447 323.377 1278.195 327.629 1272.994 327.629 L 1214.866 327.629 C 1209.665 327.629 1205.413 323.377 1205.413 318.175 L 1205.413 205.857 C 1205.413 200.655 1209.665 196.403 1214.866 196.403 L 1272.994 196.403 C 1278.195 196.403 1282.447 200.655 1282.447 205.857 L 1282.447 318.175 L 1282.447 318.175 Z " fill="rgb(164,184,182)"/><path d=" M 1253.034 239.888 C 1244.11 239.888 1236.849 247.149 1236.849 256.073 C 1236.849 264.998 1244.11 272.259 1253.034 272.259 C 1261.959 272.259 1269.22 264.998 1269.22 256.073 C 1269.22 247.149 1261.959 239.888 1253.034 239.888 Z  M 1260.187 263.226 L 1245.881 248.92 C 1249.831 244.971 1256.238 244.971 1260.188 248.92 C 1264.139 252.87 1264.138 259.277 1260.187 263.226 Z  M 1236.315 263.27 L 1218.64 280.945 L 1218.64 287.014 L 1235.704 269.951 C 1236.101 269.567 1236.731 269.573 1237.122 269.963 C 1237.512 270.353 1237.517 270.984 1237.134 271.381 L 1219.651 288.864 L 1221.256 290.468 L 1228.163 290.468 L 1231.791 286.84 L 1231.791 284.398 L 1234.232 284.398 L 1237.86 280.771 L 1237.86 279.34 L 1239.291 279.34 L 1241.907 276.724 L 1241.907 275.294 L 1243.337 275.294 L 1245.838 272.793 C 1241.569 270.944 1238.164 267.539 1236.315 263.27 Z " fill="rgb(48,67,73)"/></g><g><path d=" M 941.493 285.195 C 920.161 285.195 902.106 297.961 893.431 316 C 888.813 312.822 883.458 310.507 877.453 310.507 C 862.209 310.507 850.048 322.569 849.205 337.606 C 833.956 343.099 822.871 357.322 822.871 374.419 C 822.871 396.213 840.574 413.916 862.368 413.916 L 990.962 413.916 C 1011.03 413.916 1027.392 397.555 1027.392 377.487 C 1027.392 358.872 1013.108 344.077 995.053 341.95 C 995.114 340.96 995.306 340.035 995.306 339.013 C 995.306 309.357 971.148 285.191 941.493 285.191 L 941.493 285.195 Z " fill="rgb(210,216,237)"/><g><path d=" M 926.735 322.491 C 918.042 322.491 910.929 329.604 910.929 338.298 L 910.929 351.469 L 903.026 351.469 L 903.026 385.716 L 950.445 385.716 L 950.445 351.469 L 942.542 351.469 L 942.542 338.298 C 942.542 329.604 935.429 322.491 926.735 322.491 Z  M 926.735 327.76 C 932.581 327.76 937.273 332.452 937.273 338.298 L 937.273 351.469 L 916.198 351.469 L 916.198 338.298 C 916.198 332.452 920.89 327.76 926.735 327.76 Z " fill-rule="evenodd" fill="rgb(21,70,82)"/></g></g><path d=" M 1227.244 167.922 C 1199.682 125.141 1154.054 95.077 1101.179 88.55 L 1101.179 88.55 Q 1101.278 90.184 1101.226 91.664 Q 1101.161 93.493 1100.844 95.589 C 1150.124 101.832 1192.801 129.379 1219.341 168.698 L 1192.774 160.201 L 1190.568 167.074 L 1237.564 182.111 L 1227.523 133.8 L 1220.458 135.268 L 1227.244 167.922 Z " fill="rgb(21,70,82)"/><path d=" M 915.104 200.858 C 907.816 220.144 903.827 241.045 903.827 262.87 L 903.827 262.87 C 903.827 270.096 904.264 277.221 905.113 284.219 Q 905.86 283.684 906.593 283.223 Q 908.81 281.825 911.77 280.545 C 911.163 274.735 910.853 268.839 910.853 262.87 L 910.853 262.87 C 910.853 239.935 915.441 218.064 923.75 198.124 L 930.167 230.358 L 937.24 228.955 L 927.609 180.555 L 890.229 212.763 L 894.936 218.232 L 915.104 200.858 Z " fill="rgb(21,70,82)"/><path d=" M 1032.803 432.452 C 1047.584 436.409 1063.599 438.52 1079.477 438.52 C 1147.346 438.52 1206.277 399.945 1235.52 343.542 L 1235.52 343.542 Q 1231.878 342.914 1229.042 341.886 Q 1228.799 341.797 1228.551 341.702 C 1200.235 395.093 1144.074 431.494 1079.477 431.494 C 1063.354 431.494 1047.116 429.227 1032.21 424.993 L 1063.255 418.253 L 1061.723 411.196 L 1013.508 421.669 L 1046.357 458.488 L 1051.746 453.684 L 1032.803 432.452 Z " fill="rgb(21,70,82)"/></g></g><path d=" M 723 276 L 751 276 L 751 294 L 813 263 L 751 232 L 751 250 L 723 250 L 689.65 250 L 689.65 250 L 661.65 250 L 661.65 232 L 599.65 263 L 661.65 294 L 661.65 276 L 689.65 276 L 723 276 Z " fill-rule="evenodd" fill="rgb(21,70,82)"/></g></svg>