<?xml version="1.0" standalone="no"?><!-- Generator: Gravit.io --><svg xmlns="http://www.w3.org/2000/svg" xmlns:xlink="http://www.w3.org/1999/xlink" style="isolation:isolate" viewBox="1203 87 563 261" width="563" height="261"><defs><clipPath id="_clipPath_kYl51PLwba3FNiZCKovUyQHtutrUQ9fE"><rect width="1920" height="2160"/></clipPath></defs><g clip-path="url(#_clipPath_kYl51PLwba3FNiZCKovUyQHtutrUQ9fE)"><g><g transform="matrix(1,0,0,1,271.5,425.967)"><text transform="matrix(1,0,0,1,0,120)" style="font-family:'Salty Dish Script';font-weight:400;font-size:100px;font-style:normal;fill:#7d7d7d;stroke:none;">tincan</text></g><g><path d=" M 246 535.967 C 246 580.672 257.65 616.967 272 616.967 C 286.35 616.967 298 580.672 298 535.967 C 298 491.262 286.35 454.967 272 454.967 C 257.65 454.967 246 491.262 246 535.967 Z " fill="rgb(213,213,213)"/><path d=" M 86 616.967 L 272 616.967 L 272 542.7 L 272 454.967 L 86 454.967 L 86 616.967 Z " fill="rgb(213,213,213)"/><path d=" M 60 535.967 C 60 580.672 71.65 616.967 86 616.967 C 100.35 616.967 112 580.672 112 535.967 C 112 491.262 100.35 454.967 86 454.967 C 71.65 454.967 60 491.262 60 535.967 Z " fill="rgb(125,125,125)"/></g><g><path d=" M 731.39 552.516 C 714.719 593.997 690.375 623.329 677.06 617.978 C 663.746 612.628 666.47 574.606 683.14 533.125 C 699.811 491.645 724.155 462.312 737.47 467.663 C 750.784 473.014 748.06 511.035 731.39 552.516 Z " fill="rgb(213,213,213)"/><path d=" M 849.645 687.337 L 677.06 617.978 L 704.754 549.068 L 737.47 467.663 L 910.054 537.022 L 849.645 687.337 Z " fill="rgb(213,213,213)"/><path d=" M 903.974 621.875 C 887.304 663.355 862.96 692.688 849.645 687.337 C 836.33 681.986 839.054 643.965 855.725 602.484 C 872.395 561.003 896.739 531.671 910.054 537.022 C 923.369 542.372 920.644 580.394 903.974 621.875 Z " fill="rgb(125,125,125)"/></g></g><g><g transform="matrix(1,0,0,1,271.5,766)"><text transform="matrix(1,0,0,1,0,120)" style="font-family:'Salty Dish Script';font-weight:400;font-size:100px;font-style:normal;fill:#7d7d7d;stroke:none;">smalltech</text></g><g><path d=" M 246 876 C 246 920.705 257.65 957 272 957 C 286.35 957 298 920.705 298 876 C 298 831.295 286.35 795 272 795 C 257.65 795 246 831.295 246 876 Z " fill="rgb(213,213,213)"/><path d=" M 86 957 L 272 957 L 272 882.733 L 272 795 L 86 795 L 86 957 Z " fill="rgb(213,213,213)"/><path d=" M 60 876 C 60 920.705 71.65 957 86 957 C 100.35 957 112 920.705 112 876 C 112 831.295 100.35 795 86 795 C 71.65 795 60 831.295 60 876 Z " fill="rgb(125,125,125)"/></g><g><path d=" M 910.39 892.549 C 893.719 934.03 869.375 963.363 856.06 958.012 C 842.746 952.661 845.47 914.639 862.14 873.159 C 878.811 831.678 903.155 802.345 916.47 807.696 C 929.784 813.047 927.06 851.068 910.39 892.549 Z " fill="rgb(213,213,213)"/><path d=" M 1028.645 1027.37 L 856.06 958.012 L 883.754 889.101 L 916.47 807.696 L 1089.054 877.055 L 1028.645 1027.37 Z " fill="rgb(213,213,213)"/><path d=" M 1082.974 961.908 C 1066.304 1003.388 1041.96 1032.721 1028.645 1027.37 C 1015.33 1022.019 1018.054 983.998 1034.725 942.517 C 1051.395 901.036 1075.739 871.704 1089.054 877.055 C 1102.369 882.406 1099.644 920.427 1082.974 961.908 Z " fill="rgb(125,125,125)"/></g></g><g><g transform="matrix(1,0,0,1,271.5,1126)"><text transform="matrix(1,0,0,1,0,120)" style="font-family:'Salty Dish Script';font-weight:400;font-size:100px;font-style:normal;fill:#f3d7e0;stroke:none;">small</text><text transform="matrix(1,0,0,1,416.5,120)" style="font-family:'Salty Dish Script';font-weight:400;font-size:100px;font-style:normal;fill:#efe6d5;stroke:none;">technology</text></g><path d=" M 704.5 1576.5 L 704.5 1576.5 L 704.5 1576.5 Q 695.9 1576.5 692.05 1570.45 L 692.05 1570.45 L 692.05 1570.45 Q 688.2 1564.4 688.2 1552.5 L 688.2 1552.5 L 688.2 1552.5 Q 688.2 1536.5 690.3 1516.4 L 690.3 1516.4 L 685.6 1516.5 L 685.6 1516.5 Q 678.5 1516.4 678.5 1512.1 L 678.5 1512.1 L 678.5 1512.1 Q 678.5 1507.6 686.8 1507.6 L 686.8 1507.6 L 691.3 1507.5 L 691.3 1507.5 Q 692.9 1495.4 694.5 1491.2 L 694.5 1491.2 L 694.5 1491.2 Q 695.6 1488 698.7 1488 L 698.7 1488 L 698.7 1488 Q 702.7 1488 702.7 1492.2 L 702.7 1492.2 L 702.7 1492.2 Q 702.7 1494 700.8 1507.3 L 700.8 1507.3 L 708.8 1507.2 L 708.8 1507.2 Q 715.4 1507.2 717.85 1507.75 L 717.85 1507.75 L 717.85 1507.75 Q 720.3 1508.3 720.3 1511.1 L 720.3 1511.1 L 720.3 1511.1 Q 720.3 1514.3 717.85 1515.15 L 717.85 1515.15 L 717.85 1515.15 Q 715.4 1516 699.7 1516.3 L 699.7 1516.3 L 699.7 1516.3 Q 697.4 1536.8 697.4 1552.6 L 697.4 1552.6 L 697.4 1552.6 Q 697.4 1567.6 704.5 1567.6 L 704.5 1567.6 L 704.5 1567.6 Q 709.2 1567.6 712.2 1564.55 L 712.2 1564.55 L 712.2 1564.55 Q 715.2 1561.5 717.25 1557.1 L 717.25 1557.1 L 717.25 1557.1 Q 719.3 1552.7 720.65 1549.65 L 720.65 1549.65 L 720.65 1549.65 Q 722 1546.6 725 1546.6 L 725 1546.6 L 725 1546.6 Q 728.3 1546.6 728.3 1550.2 L 728.3 1550.2 L 728.3 1550.2 Q 728.3 1555.5 721.9 1566 L 721.9 1566 L 721.9 1566 Q 715.5 1576.5 704.5 1576.5 Z  M 744.3 1577.8 L 744.3 1577.8 L 744.3 1577.8 Q 733.3 1577.8 726.7 1569.45 L 726.7 1569.45 L 726.7 1569.45 Q 720.1 1561.1 720.1 1548.3 L 720.1 1548.3 L 720.1 1548.3 Q 720.1 1540.2 723.35 1533.85 L 723.35 1533.85 L 723.35 1533.85 Q 726.6 1527.5 731.65 1524.45 L 731.65 1524.45 L 731.65 1524.45 Q 736.7 1521.4 742.5 1521.4 L 742.5 1521.4 L 742.5 1521.4 Q 748.8 1521.4 752.35 1525.3 L 752.35 1525.3 L 752.35 1525.3 Q 755.9 1529.2 755.9 1534.9 L 755.9 1534.9 L 755.9 1534.9 Q 755.9 1542.4 749.4 1549.4 L 749.4 1549.4 L 749.4 1549.4 Q 742.9 1556.4 731.7 1559.4 L 731.7 1559.4 L 731.7 1559.4 Q 732.6 1563.3 735.85 1566.05 L 735.85 1566.05 L 735.85 1566.05 Q 739.1 1568.8 744 1568.8 L 744 1568.8 L 744 1568.8 Q 749 1568.8 753.2 1567.1 L 753.2 1567.1 L 753.2 1567.1 Q 757.4 1565.4 760.85 1561.35 L 760.85 1561.35 L 760.85 1561.35 Q 764.3 1557.3 766.95 1551.7 L 766.95 1551.7 L 766.95 1551.7 Q 769.6 1546.1 771.9 1546.1 L 771.9 1546.1 L 771.9 1546.1 Q 776 1546.1 776 1549.7 L 776 1549.7 L 776 1549.7 Q 776 1552.8 772.2 1560.05 L 772.2 1560.05 L 772.2 1560.05 Q 768.4 1567.3 761.45 1572.55 L 761.45 1572.55 L 761.45 1572.55 Q 754.5 1577.8 744.3 1577.8 Z  M 729.9 1550.6 L 729.9 1550.6 L 729.9 1550.6 Q 738.2 1548.4 742.4 1543.35 L 742.4 1543.35 L 742.4 1543.35 Q 746.6 1538.3 746.6 1534.5 L 746.6 1534.5 L 746.6 1534.5 Q 746.6 1530.6 742.5 1530.5 L 742.5 1530.5 L 742.5 1530.5 Q 736.9 1530.5 733.2 1535.5 L 733.2 1535.5 L 733.2 1535.5 Q 729.5 1540.5 729.5 1546.1 L 729.5 1546.1 L 729.5 1546.1 Q 729.5 1548.3 729.9 1550.6 Z  M 793 1578.2 L 793 1578.2 L 793 1578.2 Q 781.4 1578.1 774.35 1570.45 L 774.35 1570.45 L 774.35 1570.45 Q 767.3 1562.8 767.3 1550.7 L 767.3 1550.7 L 767.3 1550.7 Q 767.3 1537.3 774.6 1528.35 L 774.6 1528.35 L 774.6 1528.35 Q 781.9 1519.4 791.4 1519.4 L 791.4 1519.4 L 791.4 1519.4 Q 798.3 1519.4 803.05 1523.25 L 803.05 1523.25 L 803.05 1523.25 Q 807.8 1527.1 807.8 1533.9 L 807.8 1533.9 L 807.8 1533.9 Q 807.8 1536.2 806.7 1538.1 L 806.7 1538.1 L 806.7 1538.1 Q 805.6 1540 803.3 1540 L 803.3 1540 L 803.3 1540 Q 801.2 1540 800.1 1538.6 L 800.1 1538.6 L 800.1 1538.6 Q 799 1537.2 798.7 1534.1 L 798.7 1534.1 L 798.7 1534.1 Q 798.4 1531.2 796.4 1529.75 L 796.4 1529.75 L 796.4 1529.75 Q 794.4 1528.3 791.3 1528.3 L 791.3 1528.3 L 791.3 1528.3 Q 786.6 1528.3 781.4 1534.8 L 781.4 1534.8 L 781.4 1534.8 Q 776.2 1541.3 776.2 1550.7 L 776.2 1550.7 L 776.2 1550.7 Q 776.2 1559.3 781 1564.3 L 781 1564.3 L 781 1564.3 Q 785.8 1569.3 793.5 1569.3 L 793.5 1569.3 L 793.5 1569.3 Q 801.2 1569.3 806.55 1566.5 L 806.55 1566.5 L 806.55 1566.5 Q 811.9 1563.7 815.65 1558.95 L 815.65 1558.95 L 815.65 1558.95 Q 819.4 1554.2 820.75 1550.85 L 820.75 1550.85 L 820.75 1550.85 Q 822.1 1547.5 824.4 1547.5 L 824.4 1547.5 L 824.4 1547.5 Q 828.1 1547.5 828.1 1551.2 L 828.1 1551.2 L 828.1 1551.2 Q 828.1 1555.6 823.6 1562.3 L 823.6 1562.3 L 823.6 1562.3 Q 819.1 1569 811.7 1573.6 L 811.7 1573.6 L 811.7 1573.6 Q 804.3 1578.2 793 1578.2 Z  M 828.8 1538.5 L 828.8 1538.5 L 828.8 1538.5 Q 841.1 1511.7 841.1 1495 L 841.1 1495 L 841.1 1495 Q 841.1 1484.9 836.9 1484.9 L 836.9 1484.9 L 836.9 1484.9 Q 833 1484.9 830.3 1494.95 L 830.3 1494.95 L 830.3 1494.95 Q 827.6 1505 827.6 1516.2 L 827.6 1516.2 L 827.6 1516.2 Q 827.6 1524.5 828.8 1538.5 Z  M 830.3 1578.1 L 830.3 1578.1 L 830.3 1578.1 Q 826.6 1578.1 825 1572.6 L 825 1572.6 L 825 1572.6 Q 822.8 1564.7 820.8 1549.2 L 820.8 1549.2 L 820.8 1549.2 Q 818.8 1533.7 818.6 1519.5 L 818.6 1519.5 L 818.6 1519.5 Q 818.7 1507.4 820.4 1497.2 L 820.4 1497.2 L 820.4 1497.2 Q 822.1 1487 827 1481.5 L 827 1481.5 L 827 1481.5 Q 831.9 1476 837.1 1476 L 837.1 1476 L 837.1 1476 Q 842.2 1476 846.1 1480.5 L 846.1 1480.5 L 846.1 1480.5 Q 850 1485 850 1494.8 L 850 1494.8 L 850 1494.8 Q 850 1518.6 831.2 1551.7 L 831.2 1551.7 L 831.8 1557.3 L 831.8 1557.3 Q 839 1540 844.65 1532.6 L 844.65 1532.6 L 844.65 1532.6 Q 850.3 1525.2 858.4 1525.2 L 858.4 1525.2 L 858.4 1525.2 Q 870 1525.2 870 1543.8 L 870 1543.8 L 870 1544.7 L 870 1544.7 Q 869.7 1552.5 869.7 1557.6 L 869.7 1557.6 L 869.7 1557.6 Q 869.7 1568.5 875.1 1568.5 L 875.1 1568.5 L 875.1 1568.5 Q 878.3 1568.5 880.85 1565.05 L 880.85 1565.05 L 880.85 1565.05 Q 883.4 1561.6 884.6 1557.05 L 884.6 1557.05 L 884.6 1557.05 Q 885.8 1552.5 886.55 1549.85 L 886.55 1549.85 L 886.55 1549.85 Q 887.3 1547.2 889.8 1547.2 L 889.8 1547.2 L 889.8 1547.2 Q 894 1547.2 894 1551.1 L 894 1551.1 L 894 1551.1 Q 894 1554.9 891.95 1561.85 L 891.95 1561.85 L 891.95 1561.85 Q 889.9 1568.8 885.15 1573.15 L 885.15 1573.15 L 885.15 1573.15 Q 880.4 1577.5 874.9 1577.5 L 874.9 1577.5 L 874.9 1577.5 Q 869.3 1577.5 865.35 1573.7 L 865.35 1573.7 L 865.35 1573.7 Q 861.4 1569.9 860.5 1564.3 L 860.5 1564.3 L 860.5 1564.3 Q 860 1561.2 860 1556.1 L 860 1556.1 L 860 1556.1 Q 860 1554.3 860.4 1544.3 L 860.4 1544.3 L 860.4 1544.3 Q 860.4 1534.9 856.2 1534.9 L 856.2 1534.9 L 856.2 1534.9 Q 853.2 1534.9 848.55 1542.95 L 848.55 1542.95 L 848.55 1542.95 Q 843.9 1551 841 1558.8 L 841 1558.8 L 841 1558.8 Q 838.1 1566.6 836.9 1570.85 L 836.9 1570.85 L 836.9 1570.85 Q 835.7 1575.1 834.05 1576.6 L 834.05 1576.6 L 834.05 1576.6 Q 832.4 1578.1 830.3 1578.1 Z  M 935.7 1578 L 935.7 1578 L 935.7 1578 Q 929.9 1578 926.85 1573.15 L 926.85 1573.15 L 926.85 1573.15 Q 923.8 1568.3 922.95 1560.75 L 922.95 1560.75 L 922.95 1560.75 Q 922.1 1553.2 921.65 1547.2 L 921.65 1547.2 L 921.65 1547.2 Q 921.2 1541.2 920.4 1536.35 L 920.4 1536.35 L 920.4 1536.35 Q 919.6 1531.5 916.6 1531.5 L 916.6 1531.5 L 916.6 1531.5 Q 913.4 1531.5 909.75 1535.3 L 909.75 1535.3 L 909.75 1535.3 Q 906.1 1539.1 903.1 1547.1 L 903.1 1547.1 L 903.1 1547.1 Q 900.1 1555.1 899 1564 L 899 1564 L 899 1564 Q 897.9 1572.9 896.8 1574.95 L 896.8 1574.95 L 896.8 1574.95 Q 895.7 1577 893 1577 L 893 1577 L 893 1577 Q 890.8 1577 889.8 1575.35 L 889.8 1575.35 L 889.8 1575.35 Q 888.8 1573.7 887.4 1565.6 L 887.4 1565.6 L 887.4 1565.6 Q 886.2 1559.1 886.2 1550.3 L 886.2 1550.3 L 886.2 1550.3 Q 886.5 1534 887.9 1526.4 L 887.9 1526.4 L 887.9 1526.4 Q 888.7 1522.5 892.1 1522.5 L 892.1 1522.5 L 892.1 1522.5 Q 896.2 1522.5 896.25 1526.45 L 896.25 1526.45 L 896.25 1526.45 Q 896.3 1530.4 896.3 1534.2 L 896.3 1534.2 L 896.2 1541.5 L 896.2 1541.5 Q 899.5 1532.7 905.4 1527.3 L 905.4 1527.3 L 905.4 1527.3 Q 911.3 1521.9 917.4 1521.9 L 917.4 1521.9 L 917.4 1521.9 Q 922.4 1521.9 925.6 1525.65 L 925.6 1525.65 L 925.6 1525.65 Q 928.8 1529.4 929.8 1536.5 L 929.8 1536.5 L 929.8 1536.5 Q 930.3 1539.9 930.9 1547.8 L 930.9 1547.8 L 930.9 1547.8 Q 931.7 1559.4 932.85 1564.05 L 932.85 1564.05 L 932.85 1564.05 Q 934 1568.7 936 1568.7 L 936 1568.7 L 936 1568.7 Q 938.2 1568.7 940.3 1564.8 L 940.3 1564.8 L 940.3 1564.8 Q 942.4 1560.9 943.75 1556.75 L 943.75 1556.75 L 943.75 1556.75 Q 945.1 1552.6 946.4 1549.15 L 946.4 1549.15 L 946.4 1549.15 Q 947.7 1545.7 950.9 1545.7 L 950.9 1545.7 L 950.9 1545.7 Q 954 1545.7 954 1549.5 L 954 1549.5 L 954 1549.5 Q 954 1553.2 951.65 1560.9 L 951.65 1560.9 L 951.65 1560.9 Q 949.3 1568.6 945.4 1573.3 L 945.4 1573.3 L 945.4 1573.3 Q 941.5 1578 935.7 1578 Z  M 965.3 1577.8 L 965.3 1577.8 L 965.3 1577.8 Q 956.4 1577.8 950.95 1572.15 L 950.95 1572.15 L 950.95 1572.15 Q 945.5 1566.5 945.5 1555.5 L 945.5 1555.5 L 945.5 1555.5 Q 945.5 1537.3 954.4 1531.6 L 954.4 1531.6 L 954.4 1531.6 Q 956.2 1525.6 960.35 1521.95 L 960.35 1521.95 L 960.35 1521.95 Q 964.5 1518.3 970.8 1518.3 L 970.8 1518.3 L 970.8 1518.3 Q 977.1 1518.3 982.2 1521.65 L 982.2 1521.65 L 982.2 1521.65 Q 987.3 1525 990.15 1531.1 L 990.15 1531.1 L 990.15 1531.1 Q 993 1537.2 993 1545.2 L 993 1545.2 L 993 1545.2 Q 993 1553.5 989.5 1559.8 L 989.5 1559.8 L 989.5 1559.8 Q 991.1 1560.1 992.5 1560.1 L 992.5 1560.1 L 992.5 1560.1 Q 996.1 1560.1 999.7 1557.85 L 999.7 1557.85 L 999.7 1557.85 Q 1003.3 1555.6 1005 1550.7 L 1005 1550.7 L 1005 1550.7 Q 1006.7 1545.8 1009.3 1545.8 L 1009.3 1545.8 L 1009.3 1545.8 Q 1012.9 1545.8 1012.9 1549.3 L 1012.9 1549.3 L 1012.9 1549.3 Q 1012.9 1554 1009.4 1559.7 L 1009.4 1559.7 L 1009.4 1559.7 Q 1003.3 1569.1 991.1 1569.1 L 991.1 1569.1 L 991.1 1569.1 Q 987.7 1569.1 983.7 1568.4 L 983.7 1568.4 L 983.7 1568.4 Q 977.7 1577.7 965.3 1577.8 Z  M 979.3 1558.7 L 979.3 1558.7 L 979.3 1558.7 Q 983.7 1553.9 983.7 1545.6 L 983.7 1545.6 L 983.7 1545.6 Q 983.7 1538.9 981.3 1534.35 L 981.3 1534.35 L 981.3 1534.35 Q 978.9 1529.8 976.15 1528.5 L 976.15 1528.5 L 976.15 1528.5 Q 973.4 1527.2 970.8 1527.2 L 970.8 1527.2 L 970.8 1527.2 Q 967.6 1527.2 965.2 1530.25 L 965.2 1530.25 L 965.2 1530.25 Q 962.8 1533.3 962.8 1537.1 L 962.8 1537.1 L 962.8 1537.1 Q 962.8 1543.6 967.4 1549.45 L 967.4 1549.45 L 967.4 1549.45 Q 972 1555.3 979.3 1558.7 Z  M 964.9 1568.7 L 964.9 1568.7 L 964.9 1568.7 Q 970.7 1568.7 973.4 1565.9 L 973.4 1565.9 L 973.4 1565.9 Q 960.9 1559.3 955.8 1548.5 L 955.8 1548.5 L 955.8 1548.5 Q 954 1552.5 954 1555.7 L 954 1555.7 L 954 1555.7 Q 954 1561.7 956.9 1565 L 956.9 1565 L 956.9 1565 Q 960.1 1568.7 964.9 1568.7 Z  M 1012.7 1540.8 L 1012.7 1540.8 L 1012.7 1540.8 Q 1020.5 1525.3 1022.85 1515.15 L 1022.85 1515.15 L 1022.85 1515.15 Q 1025.2 1505 1025.2 1496.3 L 1025.2 1496.3 L 1025.2 1496.3 Q 1025.2 1485.4 1020.7 1485.4 L 1020.7 1485.4 L 1020.7 1485.4 Q 1017.7 1485.4 1014.85 1495.7 L 1014.85 1495.7 L 1014.85 1495.7 Q 1012 1506 1012 1519.8 L 1012 1519.8 L 1012 1519.8 Q 1012 1533.9 1012.7 1540.8 Z  M 1027.3 1578 L 1027.3 1578 L 1027.3 1578 Q 1018.3 1578 1012.4 1568.95 L 1012.4 1568.95 L 1012.4 1568.95 Q 1006.5 1559.9 1004.2 1547.1 L 1004.2 1547.1 L 1004.2 1547.1 Q 1001.9 1534.3 1001.9 1521.6 L 1001.9 1521.6 L 1001.9 1521.6 Q 1001.9 1508.6 1004.2 1497.7 L 1004.2 1497.7 L 1004.2 1497.7 Q 1006.5 1486.8 1011.1 1481.4 L 1011.1 1481.4 L 1011.1 1481.4 Q 1015.7 1476 1020.8 1476 L 1020.8 1476 L 1020.8 1476 Q 1026.5 1476 1030.4 1480.9 L 1030.4 1480.9 L 1030.4 1480.9 Q 1034.3 1485.8 1034.3 1497.7 L 1034.3 1497.7 L 1034.3 1497.7 Q 1034.3 1523.1 1015.8 1553.1 L 1015.8 1553.1 L 1015.8 1553.1 Q 1017.3 1560.5 1020.05 1564.8 L 1020.05 1564.8 L 1020.05 1564.8 Q 1022.8 1569.1 1027.6 1569.1 L 1027.6 1569.1 L 1027.6 1569.1 Q 1031.3 1569.1 1035.2 1564.4 L 1035.2 1564.4 L 1035.2 1564.4 Q 1039.1 1559.7 1042.2 1553.05 L 1042.2 1553.05 L 1042.2 1553.05 Q 1045.3 1546.4 1047.4 1546.4 L 1047.4 1546.4 L 1047.4 1546.4 Q 1051.2 1546.4 1051.2 1550.8 L 1051.2 1550.8 L 1051.2 1550.8 Q 1051.2 1554.8 1048.2 1561.2 L 1048.2 1561.2 L 1048.2 1561.2 Q 1045.2 1567.6 1039.85 1572.8 L 1039.85 1572.8 L 1039.85 1572.8 Q 1034.5 1578 1027.3 1578 Z  M 1063.2 1577.8 L 1063.2 1577.8 L 1063.2 1577.8 Q 1054.3 1577.8 1048.85 1572.15 L 1048.85 1572.15 L 1048.85 1572.15 Q 1043.4 1566.5 1043.4 1555.5 L 1043.4 1555.5 L 1043.4 1555.5 Q 1043.4 1537.3 1052.3 1531.6 L 1052.3 1531.6 L 1052.3 1531.6 Q 1054.1 1525.6 1058.25 1521.95 L 1058.25 1521.95 L 1058.25 1521.95 Q 1062.4 1518.3 1068.7 1518.3 L 1068.7 1518.3 L 1068.7 1518.3 Q 1075 1518.3 1080.1 1521.65 L 1080.1 1521.65 L 1080.1 1521.65 Q 1085.2 1525 1088.05 1531.1 L 1088.05 1531.1 L 1088.05 1531.1 Q 1090.9 1537.2 1090.9 1545.2 L 1090.9 1545.2 L 1090.9 1545.2 Q 1090.9 1553.5 1087.4 1559.8 L 1087.4 1559.8 L 1087.4 1559.8 Q 1089 1560.1 1090.4 1560.1 L 1090.4 1560.1 L 1090.4 1560.1 Q 1094 1560.1 1097.6 1557.85 L 1097.6 1557.85 L 1097.6 1557.85 Q 1101.2 1555.6 1102.9 1550.7 L 1102.9 1550.7 L 1102.9 1550.7 Q 1104.6 1545.8 1107.2 1545.8 L 1107.2 1545.8 L 1107.2 1545.8 Q 1110.8 1545.8 1110.8 1549.3 L 1110.8 1549.3 L 1110.8 1549.3 Q 1110.8 1554 1107.3 1559.7 L 1107.3 1559.7 L 1107.3 1559.7 Q 1101.2 1569.1 1089 1569.1 L 1089 1569.1 L 1089 1569.1 Q 1085.6 1569.1 1081.6 1568.4 L 1081.6 1568.4 L 1081.6 1568.4 Q 1075.6 1577.7 1063.2 1577.8 Z  M 1077.2 1558.7 L 1077.2 1558.7 L 1077.2 1558.7 Q 1081.6 1553.9 1081.6 1545.6 L 1081.6 1545.6 L 1081.6 1545.6 Q 1081.6 1538.9 1079.2 1534.35 L 1079.2 1534.35 L 1079.2 1534.35 Q 1076.8 1529.8 1074.05 1528.5 L 1074.05 1528.5 L 1074.05 1528.5 Q 1071.3 1527.2 1068.7 1527.2 L 1068.7 1527.2 L 1068.7 1527.2 Q 1065.5 1527.2 1063.1 1530.25 L 1063.1 1530.25 L 1063.1 1530.25 Q 1060.7 1533.3 1060.7 1537.1 L 1060.7 1537.1 L 1060.7 1537.1 Q 1060.7 1543.6 1065.3 1549.45 L 1065.3 1549.45 L 1065.3 1549.45 Q 1069.9 1555.3 1077.2 1558.7 Z  M 1062.8 1568.7 L 1062.8 1568.7 L 1062.8 1568.7 Q 1068.6 1568.7 1071.3 1565.9 L 1071.3 1565.9 L 1071.3 1565.9 Q 1058.8 1559.3 1053.7 1548.5 L 1053.7 1548.5 L 1053.7 1548.5 Q 1051.9 1552.5 1051.9 1555.7 L 1051.9 1555.7 L 1051.9 1555.7 Q 1051.9 1561.7 1054.8 1565 L 1054.8 1565 L 1054.8 1565 Q 1058 1568.7 1062.8 1568.7 Z  M 1127.8 1606.8 L 1127.8 1606.8 L 1127.8 1606.8 Q 1134.9 1606.8 1138 1591.9 L 1138 1591.9 L 1138 1591.9 Q 1132.1 1594.8 1128.85 1598.45 L 1128.85 1598.45 L 1128.85 1598.45 Q 1125.6 1602.1 1125.6 1604.4 L 1125.6 1604.4 L 1125.6 1604.4 Q 1125.6 1606.8 1127.8 1606.8 Z  M 1115.5 1569 L 1115.5 1569 L 1115.5 1569 Q 1119.3 1569 1126.55 1558.3 L 1126.55 1558.3 L 1126.55 1558.3 Q 1133.8 1547.6 1136.8 1534.7 L 1136.8 1534.7 L 1136.8 1534.7 Q 1133.1 1528.9 1128.2 1528.9 L 1128.2 1528.9 L 1128.2 1528.9 Q 1124.2 1528.9 1119.95 1533.2 L 1119.95 1533.2 L 1119.95 1533.2 Q 1115.7 1537.5 1113.55 1544.35 L 1113.55 1544.35 L 1113.55 1544.35 Q 1111.4 1551.2 1111.4 1558.8 L 1111.4 1558.8 L 1111.4 1558.8 Q 1111.4 1563.1 1112.15 1566.05 L 1112.15 1566.05 L 1112.15 1566.05 Q 1112.9 1569 1115.5 1569 Z  M 1126.7 1616.2 L 1126.7 1616.2 L 1126.7 1616.2 Q 1121.8 1616.2 1119.05 1613.15 L 1119.05 1613.15 L 1119.05 1613.15 Q 1116.3 1610.1 1116.3 1606.2 L 1116.3 1606.2 L 1116.3 1606.2 Q 1116.3 1592.8 1139.5 1580.6 L 1139.5 1580.6 L 1139.5 1580.6 Q 1139.9 1573.5 1139.9 1564.8 L 1139.9 1564.8 L 1139.9 1564.8 Q 1139.9 1559 1139.7 1552.5 L 1139.7 1552.5 L 1139.7 1552.5 Q 1131.4 1566.8 1126.3 1572.5 L 1126.3 1572.5 L 1126.3 1572.5 Q 1121.2 1578.2 1114.7 1578.2 L 1114.7 1578.2 L 1114.7 1578.2 Q 1109.3 1578.2 1105.95 1573.1 L 1105.95 1573.1 L 1105.95 1573.1 Q 1102.6 1568 1102.6 1558.6 L 1102.6 1558.6 L 1102.6 1558.6 Q 1102.6 1545.7 1106.95 1536.85 L 1106.95 1536.85 L 1106.95 1536.85 Q 1111.3 1528 1117.15 1523.9 L 1117.15 1523.9 L 1117.15 1523.9 Q 1123 1519.8 1128.4 1519.8 L 1128.4 1519.8 L 1128.4 1519.8 Q 1134.8 1519.8 1139.3 1523.8 L 1139.3 1523.8 L 1139.3 1523.8 Q 1142.3 1522.3 1144 1522.3 L 1144 1522.3 L 1144 1522.3 Q 1148.1 1522.3 1148.65 1527.1 L 1148.65 1527.1 L 1148.65 1527.1 Q 1149.2 1531.9 1149.35 1542.1 L 1149.35 1542.1 L 1149.35 1542.1 Q 1149.5 1552.3 1149.5 1566.9 L 1149.5 1566.9 L 1149.4 1573.9 L 1149.4 1573.9 Q 1155.4 1569.6 1160.1 1564.25 L 1160.1 1564.25 L 1160.1 1564.25 Q 1164.8 1558.9 1167.7 1552.15 L 1167.7 1552.15 L 1167.7 1552.15 Q 1170.6 1545.4 1172.5 1545.4 L 1172.5 1545.4 L 1172.5 1545.4 Q 1176.7 1545.4 1176.7 1549.9 L 1176.7 1549.9 L 1176.7 1549.9 Q 1176.7 1551.6 1174.7 1557.75 L 1174.7 1557.75 L 1174.7 1557.75 Q 1172.7 1563.9 1165.75 1572.3 L 1165.75 1572.3 L 1165.75 1572.3 Q 1158.8 1580.7 1148.5 1585.4 L 1148.5 1585.4 L 1148.5 1585.4 Q 1146.2 1602.5 1140.55 1609.35 L 1140.55 1609.35 L 1140.55 1609.35 Q 1134.9 1616.2 1126.7 1616.2 Z  M 1194.4 1609.2 L 1194.4 1609.2 L 1194.4 1609.2 Q 1189.7 1609.2 1187.1 1606.4 L 1187.1 1606.4 L 1187.1 1606.4 Q 1184.5 1603.6 1184.5 1599.4 L 1184.5 1599.4 L 1184.5 1599.4 Q 1184.5 1593.6 1188.6 1587.8 L 1188.6 1587.8 L 1188.6 1587.8 Q 1192.7 1582 1206.3 1573.9 L 1206.3 1573.9 L 1206.3 1573.9 Q 1206.7 1566.7 1206.7 1564 L 1206.7 1564 L 1206.7 1564 Q 1206.7 1558 1206.2 1549.7 L 1206.2 1549.7 L 1206.2 1549.7 Q 1200.5 1566.2 1196 1571.6 L 1196 1571.6 L 1196 1571.6 Q 1191.5 1577 1184.8 1577 L 1184.8 1577 L 1184.8 1577 Q 1176.4 1577 1172.1 1569.1 L 1172.1 1569.1 L 1172.1 1569.1 Q 1168.2 1562.1 1168.2 1550.6 L 1168.2 1550.6 L 1168.2 1550.6 Q 1168.2 1540.5 1170.4 1529.8 L 1170.4 1529.8 L 1170.4 1529.8 Q 1171.9 1522.7 1175.6 1522.7 L 1175.6 1522.7 L 1175.6 1522.7 Q 1179.7 1522.7 1179.7 1526.4 L 1179.7 1526.4 L 1179.7 1526.4 Q 1179.7 1529.1 1179.2 1531.7 L 1179.2 1531.7 L 1179.2 1531.7 Q 1177.1 1542.5 1177.1 1551.1 L 1177.1 1551.1 L 1177.1 1551.1 Q 1177.1 1558.4 1179.2 1563.35 L 1179.2 1563.35 L 1179.2 1563.35 Q 1181.3 1568.3 1184.7 1568.3 L 1184.7 1568.3 L 1184.7 1568.3 Q 1188.3 1568.3 1192.25 1561.3 L 1192.25 1561.3 L 1192.25 1561.3 Q 1196.2 1554.3 1199.45 1543.95 L 1199.45 1543.95 L 1199.45 1543.95 Q 1202.7 1533.6 1204.05 1529.7 L 1204.05 1529.7 L 1204.05 1529.7 Q 1205.4 1525.8 1207.8 1525.8 L 1207.8 1525.8 L 1207.8 1525.8 Q 1211.4 1525.8 1212.4 1528.9 L 1212.4 1528.9 L 1212.4 1528.9 Q 1215.5 1538.9 1215.5 1566.6 L 1215.5 1566.6 L 1215.5 1569.9 L 1215.5 1569.9 Q 1222.6 1565.6 1226.4 1559.6 L 1226.4 1559.6 L 1226.4 1559.6 Q 1230.2 1553.6 1231.6 1550.4 L 1231.6 1550.4 L 1231.6 1550.4 Q 1233 1547.2 1236 1547.2 L 1236 1547.2 L 1236 1547.2 Q 1239.8 1547.2 1239.8 1551.2 L 1239.8 1551.2 L 1239.8 1551.2 Q 1239.8 1553 1237.3 1558.6 L 1237.3 1558.6 L 1237.3 1558.6 Q 1234.8 1564.2 1229.3 1570.25 L 1229.3 1570.25 L 1229.3 1570.25 Q 1223.8 1576.3 1215.1 1580 L 1215.1 1580 L 1215.1 1580 Q 1212.3 1597.7 1207 1603.45 L 1207 1603.45 L 1207 1603.45 Q 1201.7 1609.2 1194.4 1609.2 Z  M 1195 1600.4 L 1195 1600.4 L 1195 1600.4 Q 1201.7 1600.4 1204.6 1585 L 1204.6 1585 L 1204.6 1585 Q 1198.8 1587.6 1195.95 1592 L 1195.95 1592 L 1195.95 1592 Q 1193.1 1596.4 1193.1 1598.5 L 1193.1 1598.5 L 1193.1 1598.5 Q 1193.1 1600.4 1195 1600.4 Z  M 1268.9 1575.6 L 1268.9 1575.6 L 1268.9 1575.6 Q 1258.5 1575.5 1250.8 1572.4 L 1250.8 1572.4 L 1250.8 1572.4 Q 1243.1 1569.3 1237.55 1562.9 L 1237.55 1562.9 L 1237.55 1562.9 Q 1232 1556.5 1232 1551.5 L 1232 1551.5 L 1232 1551.5 Q 1232 1546.8 1236.3 1546.8 L 1236.3 1546.8 L 1236.3 1546.8 Q 1239.3 1546.8 1241.8 1551.4 L 1241.8 1551.4 L 1241.8 1551.4 Q 1244.6 1556.7 1251.3 1561.5 L 1251.3 1561.5 L 1251.3 1561.5 Q 1258 1566.3 1268.9 1566.3 L 1268.9 1566.3 L 1268.9 1566.3 Q 1279.8 1566.3 1286.5 1561.5 L 1286.5 1561.5 L 1286.5 1561.5 Q 1293.2 1556.7 1296 1551.4 L 1296 1551.4 L 1296 1551.4 Q 1298.5 1546.8 1301.5 1546.8 L 1301.5 1546.8 L 1301.5 1546.8 Q 1305.8 1546.8 1305.8 1551.5 L 1305.8 1551.5 L 1305.8 1551.5 Q 1305.8 1556.5 1299.9 1562.9 L 1299.9 1562.9 L 1299.9 1562.9 Q 1294 1569.3 1286.65 1572.4 L 1286.65 1572.4 L 1286.65 1572.4 Q 1279.3 1575.5 1268.9 1575.6 Z " fill="rgb(239,230,213)"/><path d=" M 309.3 1575.6 L 309.3 1575.6 L 309.3 1575.6 Q 298.9 1575.5 291.2 1572.4 L 291.2 1572.4 L 291.2 1572.4 Q 283.5 1569.3 277.95 1562.9 L 277.95 1562.9 L 277.95 1562.9 Q 272.4 1556.5 272.4 1551.5 L 272.4 1551.5 L 272.4 1551.5 Q 272.4 1546.8 276.7 1546.8 L 276.7 1546.8 L 276.7 1546.8 Q 279.7 1546.8 282.2 1551.4 L 282.2 1551.4 L 282.2 1551.4 Q 285 1556.7 291.7 1561.5 L 291.7 1561.5 L 291.7 1561.5 Q 298.4 1566.3 309.3 1566.3 L 309.3 1566.3 L 309.3 1566.3 Q 320.2 1566.3 326.9 1561.5 L 326.9 1561.5 L 326.9 1561.5 Q 333.6 1556.7 336.4 1551.4 L 336.4 1551.4 L 336.4 1551.4 Q 338.9 1546.8 341.9 1546.8 L 341.9 1546.8 L 341.9 1546.8 Q 346.2 1546.8 346.2 1551.5 L 346.2 1551.5 L 346.2 1551.5 Q 346.2 1556.5 340.3 1562.9 L 340.3 1562.9 L 340.3 1562.9 Q 334.4 1569.3 327.05 1572.4 L 327.05 1572.4 L 327.05 1572.4 Q 319.7 1575.5 309.3 1575.6 Z  M 360.4 1571.4 L 360.4 1571.4 L 360.4 1571.4 Q 362.7 1571.4 364.05 1569.2 L 364.05 1569.2 L 364.05 1569.2 Q 365.4 1567 365.4 1563.6 L 365.4 1563.6 L 365.4 1563.6 Q 361.5 1564 359.95 1565.75 L 359.95 1565.75 L 359.95 1565.75 Q 358.4 1567.5 358.4 1569.4 L 358.4 1569.4 L 358.4 1569.4 Q 358.4 1571.4 360.4 1571.4 Z  M 365.95 1535.25 L 365.95 1535.25 L 365.95 1535.25 Q 372.2 1546 373.3 1553.9 L 373.3 1553.9 L 373.3 1553.9 Q 382.2 1552.3 387.9 1546.6 L 387.9 1546.6 L 387.9 1546.6 Q 390.5 1543.9 392.6 1543.9 L 392.6 1543.9 L 392.6 1543.9 Q 395.1 1543.9 396.2 1545.5 L 396.2 1545.5 L 396.2 1545.5 Q 396.9 1546.5 396.9 1547.7 L 396.9 1547.7 L 396.9 1547.7 Q 396.9 1550.1 394.3 1552.7 L 394.3 1552.7 L 394.3 1552.7 Q 389 1558.1 381.7 1560.1 L 381.7 1560.1 L 374.8 1562.1 L 374.8 1562.1 Q 374.8 1572 370.55 1576.2 L 370.55 1576.2 L 370.55 1576.2 Q 366.3 1580.4 360.7 1580.4 L 360.7 1580.4 L 360.7 1580.4 Q 355.5 1580.4 352.45 1577.5 L 352.45 1577.5 L 352.45 1577.5 Q 349.4 1574.6 349.4 1569.9 L 349.4 1569.9 L 349.4 1569.9 Q 349.4 1559.9 363.4 1554.7 L 363.4 1554.7 L 363.4 1554.7 Q 362.9 1548.5 354.1 1533.5 L 354.1 1533.5 L 354.1 1533.5 Q 348.4 1551.2 343.7 1557.5 L 343.7 1557.5 L 343.7 1557.5 Q 341.6 1560.3 338.9 1560.3 L 338.9 1560.3 L 338.9 1560.3 Q 335.3 1560.3 335.3 1556.2 L 335.3 1556.2 L 335.3 1556.2 Q 335.3 1554.4 337.6 1550.2 L 337.6 1550.2 L 337.6 1550.2 Q 343.1 1539.8 344.95 1533.2 L 344.95 1533.2 L 344.95 1533.2 Q 346.8 1526.6 349.2 1519.1 L 349.2 1519.1 L 349.2 1519.1 Q 350.8 1514.5 354.3 1514.5 L 354.3 1514.5 L 354.3 1514.5 Q 358.4 1514.5 358.4 1520 L 358.4 1520 L 358.4 1520 Q 359.7 1524.5 365.95 1535.25 Z  M 396.6 1577.8 L 396.6 1577.8 L 396.6 1577.8 Q 394.1 1577.8 392.7 1574.95 L 392.7 1574.95 L 392.7 1574.95 Q 391.3 1572.1 390.2 1564 L 390.2 1564 L 390.2 1564 Q 389.1 1555.9 389.1 1543.8 L 389.1 1543.8 L 389.1 1543.8 Q 389.1 1535 389.4 1528.55 L 389.4 1528.55 L 389.4 1528.55 Q 389.7 1522.1 394.1 1522.1 L 394.1 1522.1 L 394.1 1522.1 Q 397.6 1522.1 397.6 1527.7 L 397.6 1527.7 L 397.6 1527.7 Q 397.6 1533.3 398 1544.6 L 398 1544.6 L 398 1544.6 Q 401.6 1532.3 406.45 1526.05 L 406.45 1526.05 L 406.45 1526.05 Q 411.3 1519.8 417.3 1519.8 L 417.3 1519.8 L 417.3 1519.8 Q 421.5 1519.8 425.45 1524.6 L 425.45 1524.6 L 425.45 1524.6 Q 429.4 1529.4 431.5 1539.3 L 431.5 1539.3 L 431.5 1539.3 Q 435 1529.9 438.85 1526.15 L 438.85 1526.15 L 438.85 1526.15 Q 442.7 1522.4 448 1522.4 L 448 1522.4 L 448 1522.4 Q 453.1 1522.4 456.55 1527.05 L 456.55 1527.05 L 456.55 1527.05 Q 460 1531.7 460.8 1540.15 L 460.8 1540.15 L 460.8 1540.15 Q 461.6 1548.6 462.3 1556.75 L 462.3 1556.75 L 462.3 1556.75 Q 463 1564.9 464.95 1566.95 L 464.95 1566.95 L 464.95 1566.95 Q 466.9 1569 469.5 1569 L 469.5 1569 L 469.5 1569 Q 472.5 1569 474.6 1566.25 L 474.6 1566.25 L 474.6 1566.25 Q 476.7 1563.5 478 1558.15 L 478 1558.15 L 478 1558.15 Q 479.3 1552.8 480.4 1549.9 L 480.4 1549.9 L 480.4 1549.9 Q 481.5 1547 483.9 1547 L 483.9 1547 L 483.9 1547 Q 487.6 1547 487.6 1551.7 L 487.6 1551.7 L 487.6 1551.7 Q 487.6 1555.3 485.15 1562.75 L 485.15 1562.75 L 485.15 1562.75 Q 482.7 1570.2 478.55 1574.1 L 478.55 1574.1 L 478.55 1574.1 Q 474.4 1578 468.3 1578 L 468.3 1578 L 468.3 1578 Q 461.8 1578 457.65 1572.45 L 457.65 1572.45 L 457.65 1572.45 Q 453.5 1566.9 453 1557.4 L 453 1557.4 L 453 1557.4 Q 452.5 1547.9 451.4 1540 L 451.4 1540 L 451.4 1540 Q 450.3 1532.1 446.8 1532.1 L 446.8 1532.1 L 446.8 1532.1 Q 443.2 1532.1 440.35 1540.8 L 440.35 1540.8 L 440.35 1540.8 Q 437.5 1549.5 436.4 1555.95 L 436.4 1555.95 L 436.4 1555.95 Q 435.3 1562.4 434.25 1569.95 L 434.25 1569.95 L 434.25 1569.95 Q 433.2 1577.5 429.5 1577.5 L 429.5 1577.5 L 429.5 1577.5 Q 425.2 1577.5 425 1573.7 L 425 1573.7 L 425 1573.7 Q 424.3 1551 421.95 1540.25 L 421.95 1540.25 L 421.95 1540.25 Q 419.6 1529.5 416.3 1529.5 L 416.3 1529.5 L 416.3 1529.5 Q 412.6 1529.5 409.6 1536.9 L 409.6 1536.9 L 409.6 1536.9 Q 406.6 1544.3 404.5 1553.95 L 404.5 1553.95 L 404.5 1553.95 Q 402.4 1563.6 401.6 1571.1 L 401.6 1571.1 L 401.6 1571.1 Q 400.9 1577.8 396.6 1577.8 Z  M 530.3 1577.5 L 530.3 1577.5 L 530.3 1577.5 Q 523.7 1577.5 520.1 1574.05 L 520.1 1574.05 L 520.1 1574.05 Q 516.5 1570.6 515 1565.3 L 515 1565.3 L 515 1565.3 Q 512.1 1570.6 507.8 1573.9 L 507.8 1573.9 L 507.8 1573.9 Q 503.5 1577.2 498 1577.2 L 498 1577.2 L 498 1577.2 Q 489.6 1577.2 484.75 1570.6 L 484.75 1570.6 L 484.75 1570.6 Q 479.9 1564 479.9 1553.6 L 479.9 1553.6 L 479.9 1553.6 Q 479.9 1540.7 487.6 1531.45 L 487.6 1531.45 L 487.6 1531.45 Q 495.3 1522.2 505.7 1522.2 L 505.7 1522.2 L 505.7 1522.2 Q 511.1 1522.2 517.5 1526.1 L 517.5 1526.1 L 517.5 1526.1 Q 519.6 1522.3 522.3 1522.3 L 522.3 1522.3 L 522.3 1522.3 Q 526.4 1522.3 526.5 1527.5 L 526.5 1527.5 L 526.5 1527.5 Q 526.5 1531.8 525.2 1539.6 L 525.2 1539.6 L 525.2 1539.6 Q 523.6 1548.5 523.6 1554.8 L 523.6 1554.8 L 523.6 1554.8 Q 523.6 1561.7 525.5 1565.1 L 525.5 1565.1 L 525.5 1565.1 Q 527.4 1568.5 530.5 1568.5 L 530.5 1568.5 L 530.5 1568.5 Q 535.7 1568.5 538.9 1563.1 L 538.9 1563.1 L 538.9 1563.1 Q 542.1 1557.7 543.8 1552.05 L 543.8 1552.05 L 543.8 1552.05 Q 545.5 1546.4 548.2 1546.4 L 548.2 1546.4 L 548.2 1546.4 Q 551.8 1546.4 551.8 1550.3 L 551.8 1550.3 L 551.8 1550.3 Q 551.8 1554.1 548.9 1561.9 L 548.9 1561.9 L 548.9 1561.9 Q 546 1569.7 541.4 1573.6 L 541.4 1573.6 L 541.4 1573.6 Q 536.8 1577.5 530.3 1577.5 Z  M 497.8 1568 L 497.8 1568 L 497.8 1568 Q 502.6 1568 506.9 1562.7 L 506.9 1562.7 L 506.9 1562.7 Q 511.2 1557.4 512.95 1550.5 L 512.95 1550.5 L 512.95 1550.5 Q 514.7 1543.6 514.8 1538.2 L 514.8 1538.2 L 514.8 1538.2 Q 514.6 1530.5 505.5 1530.5 L 505.5 1530.5 L 505.5 1530.5 Q 498.9 1530.5 493.8 1537.35 L 493.8 1537.35 L 493.8 1537.35 Q 488.7 1544.2 488.7 1553.8 L 488.7 1553.8 L 488.7 1553.8 Q 488.7 1561.1 491.45 1564.55 L 491.45 1564.55 L 491.45 1564.55 Q 494.2 1568 497.8 1568 Z  M 552.1 1540.8 L 552.1 1540.8 L 552.1 1540.8 Q 559.9 1525.3 562.25 1515.15 L 562.25 1515.15 L 562.25 1515.15 Q 564.6 1505 564.6 1496.3 L 564.6 1496.3 L 564.6 1496.3 Q 564.6 1485.4 560.1 1485.4 L 560.1 1485.4 L 560.1 1485.4 Q 557.1 1485.4 554.25 1495.7 L 554.25 1495.7 L 554.25 1495.7 Q 551.4 1506 551.4 1519.8 L 551.4 1519.8 L 551.4 1519.8 Q 551.4 1533.9 552.1 1540.8 Z  M 566.7 1578 L 566.7 1578 L 566.7 1578 Q 557.7 1578 551.8 1568.95 L 551.8 1568.95 L 551.8 1568.95 Q 545.9 1559.9 543.6 1547.1 L 543.6 1547.1 L 543.6 1547.1 Q 541.3 1534.3 541.3 1521.6 L 541.3 1521.6 L 541.3 1521.6 Q 541.3 1508.6 543.6 1497.7 L 543.6 1497.7 L 543.6 1497.7 Q 545.9 1486.8 550.5 1481.4 L 550.5 1481.4 L 550.5 1481.4 Q 555.1 1476 560.2 1476 L 560.2 1476 L 560.2 1476 Q 565.9 1476 569.8 1480.9 L 569.8 1480.9 L 569.8 1480.9 Q 573.7 1485.8 573.7 1497.7 L 573.7 1497.7 L 573.7 1497.7 Q 573.7 1523.1 555.2 1553.1 L 555.2 1553.1 L 555.2 1553.1 Q 556.7 1560.5 559.45 1564.8 L 559.45 1564.8 L 559.45 1564.8 Q 562.2 1569.1 567 1569.1 L 567 1569.1 L 567 1569.1 Q 570.7 1569.1 574.6 1564.4 L 574.6 1564.4 L 574.6 1564.4 Q 578.5 1559.7 581.6 1553.05 L 581.6 1553.05 L 581.6 1553.05 Q 584.7 1546.4 586.8 1546.4 L 586.8 1546.4 L 586.8 1546.4 Q 590.6 1546.4 590.6 1550.8 L 590.6 1550.8 L 590.6 1550.8 Q 590.6 1554.8 587.6 1561.2 L 587.6 1561.2 L 587.6 1561.2 Q 584.6 1567.6 579.25 1572.8 L 579.25 1572.8 L 579.25 1572.8 Q 573.9 1578 566.7 1578 Z  M 590.9 1540.8 L 590.9 1540.8 L 590.9 1540.8 Q 598.7 1525.3 601.05 1515.15 L 601.05 1515.15 L 601.05 1515.15 Q 603.4 1505 603.4 1496.3 L 603.4 1496.3 L 603.4 1496.3 Q 603.4 1485.4 598.9 1485.4 L 598.9 1485.4 L 598.9 1485.4 Q 595.9 1485.4 593.05 1495.7 L 593.05 1495.7 L 593.05 1495.7 Q 590.2 1506 590.2 1519.8 L 590.2 1519.8 L 590.2 1519.8 Q 590.2 1533.9 590.9 1540.8 Z  M 605.5 1578 L 605.5 1578 L 605.5 1578 Q 596.5 1578 590.6 1568.95 L 590.6 1568.95 L 590.6 1568.95 Q 584.7 1559.9 582.4 1547.1 L 582.4 1547.1 L 582.4 1547.1 Q 580.1 1534.3 580.1 1521.6 L 580.1 1521.6 L 580.1 1521.6 Q 580.1 1508.6 582.4 1497.7 L 582.4 1497.7 L 582.4 1497.7 Q 584.7 1486.8 589.3 1481.4 L 589.3 1481.4 L 589.3 1481.4 Q 593.9 1476 599 1476 L 599 1476 L 599 1476 Q 604.7 1476 608.6 1480.9 L 608.6 1480.9 L 608.6 1480.9 Q 612.5 1485.8 612.5 1497.7 L 612.5 1497.7 L 612.5 1497.7 Q 612.5 1523.1 594 1553.1 L 594 1553.1 L 594 1553.1 Q 595.5 1560.5 598.25 1564.8 L 598.25 1564.8 L 598.25 1564.8 Q 601 1569.1 605.8 1569.1 L 605.8 1569.1 L 605.8 1569.1 Q 609.5 1569.1 613.4 1564.4 L 613.4 1564.4 L 613.4 1564.4 Q 617.3 1559.7 620.4 1553.05 L 620.4 1553.05 L 620.4 1553.05 Q 623.5 1546.4 625.6 1546.4 L 625.6 1546.4 L 625.6 1546.4 Q 629.4 1546.4 629.4 1550.8 L 629.4 1550.8 L 629.4 1550.8 Q 629.4 1554.8 626.4 1561.2 L 626.4 1561.2 L 626.4 1561.2 Q 623.4 1567.6 618.05 1572.8 L 618.05 1572.8 L 618.05 1572.8 Q 612.7 1578 605.5 1578 Z  M 659.7 1575.6 L 659.7 1575.6 L 659.7 1575.6 Q 649.3 1575.5 641.6 1572.4 L 641.6 1572.4 L 641.6 1572.4 Q 633.9 1569.3 628.35 1562.9 L 628.35 1562.9 L 628.35 1562.9 Q 622.8 1556.5 622.8 1551.5 L 622.8 1551.5 L 622.8 1551.5 Q 622.8 1546.8 627.1 1546.8 L 627.1 1546.8 L 627.1 1546.8 Q 630.1 1546.8 632.6 1551.4 L 632.6 1551.4 L 632.6 1551.4 Q 635.4 1556.7 642.1 1561.5 L 642.1 1561.5 L 642.1 1561.5 Q 648.8 1566.3 659.7 1566.3 L 659.7 1566.3 L 659.7 1566.3 Q 670.6 1566.3 677.3 1561.5 L 677.3 1561.5 L 677.3 1561.5 Q 684 1556.7 686.8 1551.4 L 686.8 1551.4 L 686.8 1551.4 Q 689.3 1546.8 692.3 1546.8 L 692.3 1546.8 L 692.3 1546.8 Q 696.6 1546.8 696.6 1551.5 L 696.6 1551.5 L 696.6 1551.5 Q 696.6 1556.5 690.7 1562.9 L 690.7 1562.9 L 690.7 1562.9 Q 684.8 1569.3 677.45 1572.4 L 677.45 1572.4 L 677.45 1572.4 Q 670.1 1575.5 659.7 1575.6 Z " fill="rgb(243,215,224)"/><g><path d=" M 246 1236 C 246 1280.705 257.65 1317 272 1317 C 286.35 1317 298 1280.705 298 1236 C 298 1191.295 286.35 1155 272 1155 C 257.65 1155 246 1191.295 246 1236 Z " fill="rgb(216,229,239)"/><path d=" M 246 1566 C 246 1610.705 257.65 1647 272 1647 C 286.35 1647 298 1610.705 298 1566 C 298 1521.295 286.35 1485 272 1485 C 257.65 1485 246 1521.295 246 1566 Z " fill="rgb(216,229,239)"/><path d=" M 86 1317 L 272 1317 L 272 1242.733 L 272 1155 L 86 1155 L 86 1317 Z " fill="rgb(216,229,239)"/><path d=" M 86 1647 L 272 1647 L 272 1572.733 L 272 1485 L 86 1485 L 86 1647 Z " fill="rgb(216,229,239)"/><path d=" M 60 1236 C 60 1280.705 71.65 1317 86 1317 C 100.35 1317 112 1280.705 112 1236 C 112 1191.295 100.35 1155 86 1155 C 71.65 1155 60 1191.295 60 1236 Z " fill="rgb(146,170,190)"/><path d=" M 60 1566 C 60 1610.705 71.65 1647 86 1647 C 100.35 1647 112 1610.705 112 1566 C 112 1521.295 100.35 1485 86 1485 C 71.65 1485 60 1521.295 60 1566 Z " fill="rgb(146,170,190)"/></g><g><path d=" M 1320.39 1252.549 C 1303.719 1294.03 1279.375 1323.363 1266.06 1318.012 C 1252.746 1312.661 1255.47 1274.639 1272.14 1233.159 C 1288.811 1191.678 1313.155 1162.345 1326.47 1167.696 C 1339.784 1173.047 1337.06 1211.068 1320.39 1252.549 Z " fill="rgb(216,229,239)"/><path d=" M 1320.39 1582.549 C 1303.719 1624.03 1279.375 1653.363 1266.06 1648.012 C 1252.746 1642.661 1255.47 1604.639 1272.14 1563.159 C 1288.811 1521.678 1313.155 1492.345 1326.47 1497.696 C 1339.784 1503.047 1337.06 1541.068 1320.39 1582.549 Z " fill="rgb(216,229,239)"/><path d=" M 1438.645 1387.37 L 1266.06 1318.012 L 1293.754 1249.101 L 1326.47 1167.696 L 1499.054 1237.055 L 1438.645 1387.37 Z " fill="rgb(216,229,239)"/><path d=" M 1438.645 1717.37 L 1266.06 1648.012 L 1293.754 1579.101 L 1326.47 1497.696 L 1499.054 1567.055 L 1438.645 1717.37 Z " fill="rgb(216,229,239)"/><path d=" M 1492.974 1321.908 C 1476.304 1363.388 1451.96 1392.721 1438.645 1387.37 C 1425.33 1382.019 1428.054 1343.998 1444.725 1302.517 C 1461.395 1261.036 1485.739 1231.704 1499.054 1237.055 C 1512.369 1242.406 1509.644 1280.427 1492.974 1321.908 Z " fill="rgb(146,170,190)"/><path d=" M 1492.974 1651.908 C 1476.304 1693.388 1451.96 1722.721 1438.645 1717.37 C 1425.33 1712.019 1428.054 1673.998 1444.725 1632.517 C 1461.395 1591.036 1485.739 1561.704 1499.054 1567.055 C 1512.369 1572.406 1509.644 1610.427 1492.974 1651.908 Z " fill="rgb(146,170,190)"/></g></g><g><path d=" M 369.364 164.507 Q 368.882 164.986 368.4 165.6 L 368.4 165.6 L 368.4 165.6 Q 347.6 193.3 314 193.3 L 314 193.3 L 314 193.3 Q 280.5 193.3 259.7 165.6 L 259.7 165.6 L 259.7 165.6 Q 257.5 162.8 255.3 162.8 L 255.3 162.8 L 255.3 162.8 Q 254.2 162.8 252.8 164 L 252.8 164 L 252.8 164 Q 251.4 165.2 251.4 167.5 L 251.4 167.5 L 251.4 167.5 Q 251.4 172.5 259.25 181 L 259.25 181 L 259.25 181 Q 267.1 189.5 280.05 195.95 L 280.05 195.95 L 280.05 195.95 Q 293 202.4 314 202.6 L 314 202.6 L 314 202.6 Q 335.1 202.4 348.05 195.95 L 348.05 195.95 L 348.05 195.95 Q 361 189.5 368.85 181 L 368.85 181 L 368.85 181 Q 373.411 176.062 375.322 172.305 Q 377.284 175.706 381.25 180 L 381.25 180 L 381.25 180 Q 389.1 188.5 402.05 194.95 L 402.05 194.95 L 402.05 194.95 Q 415 201.4 436 201.6 L 436 201.6 L 436 201.6 Q 457.1 201.4 470.05 194.95 L 470.05 194.95 L 470.05 194.95 Q 483 188.5 490.85 180 L 490.85 180 L 490.85 180 Q 498.7 171.5 498.7 166.5 L 498.7 166.5 L 498.7 166.5 Q 498.7 164.2 497.3 163 L 497.3 163 L 497.3 163 Q 495.9 161.8 494.8 161.8 L 494.8 161.8 L 494.8 161.8 Q 492.6 161.8 490.4 164.6 L 490.4 164.6 L 490.4 164.6 Q 469.6 192.3 436 192.3 L 436 192.3 L 436 192.3 Q 402.5 192.3 381.7 164.6 L 381.7 164.6 L 381.7 164.6 Q 380.993 163.7 380.286 163.089 L 380.286 163.089 Q 382.651 158.243 386.1 153.5 L 386.1 153.5 L 386.1 153.5 Q 389.1 149.3 401.6 136.2 L 401.6 136.2 L 401.6 136.2 Q 413.8 123.1 413.8 109.5 L 413.8 109.5 L 413.8 109.5 Q 413.8 97.7 405 91.5 L 405 91.5 L 405 91.5 Q 399.7 87.8 393.6 87.8 L 393.6 87.8 L 393.6 87.8 Q 383.6 87.8 376.2 96.2 L 376.2 96.2 L 376.2 96.2 Q 375.1 97.4 374.3 98.7 L 374.3 98.7 L 374.3 98.7 Q 373.4 97.4 372.3 96.2 L 372.3 96.2 L 372.3 96.2 Q 364.9 88.1 355.1 88.1 L 355.1 88.1 L 355.1 88.1 Q 348.7 88.1 343.4 91.9 L 343.4 91.9 L 343.4 91.9 Q 334.8 98 334.8 109.9 L 334.8 109.9 L 334.8 109.9 Q 334.8 123.7 347.3 136.5 L 347.3 136.5 L 347.3 136.5 Q 349.4 138.8 351.7 141.1 L 351.7 141.1 L 351.7 141.1 Q 359.5 148.9 363 153.65 L 363 153.65 L 363 153.65 Q 366.5 158.4 368.3 162.25 L 368.3 162.25 L 368.3 162.25 Q 368.906 163.546 369.364 164.507 Z  M 375 154.6 L 374.5 154.6 L 374.5 154.6 L 396.6 128.5 L 396.6 128.5 Q 400.8 123.9 403.1 118.3 L 403.1 118.3 L 403.1 118.3 Q 405 113.4 405 109.5 L 405 109.5 L 405 109.5 Q 405 105.1 402.8 102.1 L 402.8 102.1 L 402.8 102.1 Q 399.3 97.1 393 97.1 L 393 97.1 L 393 97.1 Q 387.7 97.1 385.15 99.7 L 385.15 99.7 L 385.15 99.7 Q 382.6 102.3 380 106.3 L 380 106.3 L 380 106.3 Q 377.4 110.3 374.3 110.3 L 374.3 110.3 L 374.3 110.3 Q 371.3 110.3 368.9 106.45 L 368.9 106.45 L 368.9 106.45 Q 366.5 102.6 363.7 100 L 363.7 100 L 363.7 100 Q 360.9 97.4 355.6 97.4 L 355.6 97.4 L 355.6 97.4 Q 349.2 97.4 346.35 101.4 L 346.35 101.4 L 346.35 101.4 Q 343.5 105.4 343.5 109.5 L 343.5 109.5 L 343.5 109.5 Q 343.5 113.4 345.75 118.8 L 345.75 118.8 L 345.75 118.8 Q 348 124.2 352.2 128.8 L 352.2 128.8 Q 371.2 148 375 154.6 L 375 154.6 Z " fill-rule="evenodd" fill="rgb(125,125,125)"/><g><path d=" M 275 196 C 275 240.705 286.65 277 301 277 C 315.35 277 327 240.705 327 196 C 327 151.295 315.35 115 301 115 C 286.65 115 275 151.295 275 196 Z " fill="rgb(213,213,213)"/><path d=" M 115 277 L 301 277 L 301 202.733 L 301 115 L 115 115 L 115 277 Z " fill="rgb(213,213,213)"/><path d=" M 89 196 C 89 240.705 100.65 277 115 277 C 129.35 277 141 240.705 141 196 C 141 151.295 129.35 115 115 115 C 100.65 115 89 151.295 89 196 Z " fill="rgb(125,125,125)"/></g><g><path d=" M 464.775 212.483 C 448.105 253.964 423.761 283.296 410.446 277.945 C 397.131 272.594 399.856 234.573 416.526 193.092 C 433.196 151.612 457.54 122.279 470.855 127.63 C 484.17 132.981 481.446 171.002 464.775 212.483 Z " fill="rgb(213,213,213)"/><path d=" M 583.03 347.304 L 410.446 277.945 L 438.14 209.035 L 470.855 127.63 L 643.44 196.988 L 583.03 347.304 Z " fill="rgb(213,213,213)"/><path d=" M 637.36 281.841 C 620.689 323.322 596.345 352.655 583.03 347.304 C 569.716 341.953 572.44 303.932 589.11 262.451 C 605.781 220.97 630.125 191.637 643.44 196.988 C 656.754 202.339 654.03 240.361 637.36 281.841 Z " fill="rgb(125,125,125)"/></g></g><g><path d=" M 1483.364 164.507 Q 1482.882 164.986 1482.4 165.6 L 1482.4 165.6 L 1482.4 165.6 Q 1461.6 193.3 1428 193.3 L 1428 193.3 L 1428 193.3 Q 1394.5 193.3 1373.7 165.6 L 1373.7 165.6 L 1373.7 165.6 Q 1371.5 162.8 1369.3 162.8 L 1369.3 162.8 L 1369.3 162.8 Q 1368.2 162.8 1366.8 164 L 1366.8 164 L 1366.8 164 Q 1365.4 165.2 1365.4 167.5 L 1365.4 167.5 L 1365.4 167.5 Q 1365.4 172.5 1373.25 181 L 1373.25 181 L 1373.25 181 Q 1381.1 189.5 1394.05 195.95 L 1394.05 195.95 L 1394.05 195.95 Q 1407 202.4 1428 202.6 L 1428 202.6 L 1428 202.6 Q 1449.1 202.4 1462.05 195.95 L 1462.05 195.95 L 1462.05 195.95 Q 1475 189.5 1482.85 181 L 1482.85 181 L 1482.85 181 Q 1487.411 176.062 1489.322 172.305 Q 1491.284 175.706 1495.25 180 L 1495.25 180 L 1495.25 180 Q 1503.1 188.5 1516.05 194.95 L 1516.05 194.95 L 1516.05 194.95 Q 1529 201.4 1550 201.6 L 1550 201.6 L 1550 201.6 Q 1571.1 201.4 1584.05 194.95 L 1584.05 194.95 L 1584.05 194.95 Q 1597 188.5 1604.85 180 L 1604.85 180 L 1604.85 180 Q 1612.7 171.5 1612.7 166.5 L 1612.7 166.5 L 1612.7 166.5 Q 1612.7 164.2 1611.3 163 L 1611.3 163 L 1611.3 163 Q 1609.9 161.8 1608.8 161.8 L 1608.8 161.8 L 1608.8 161.8 Q 1606.6 161.8 1604.4 164.6 L 1604.4 164.6 L 1604.4 164.6 Q 1583.6 192.3 1550 192.3 L 1550 192.3 L 1550 192.3 Q 1516.5 192.3 1495.7 164.6 L 1495.7 164.6 L 1495.7 164.6 Q 1494.993 163.7 1494.286 163.089 L 1494.286 163.089 Q 1496.651 158.243 1500.1 153.5 L 1500.1 153.5 L 1500.1 153.5 Q 1503.1 149.3 1515.6 136.2 L 1515.6 136.2 L 1515.6 136.2 Q 1527.8 123.1 1527.8 109.5 L 1527.8 109.5 L 1527.8 109.5 Q 1527.8 97.7 1519 91.5 L 1519 91.5 L 1519 91.5 Q 1513.7 87.8 1507.6 87.8 L 1507.6 87.8 L 1507.6 87.8 Q 1497.6 87.8 1490.2 96.2 L 1490.2 96.2 L 1490.2 96.2 Q 1489.1 97.4 1488.3 98.7 L 1488.3 98.7 L 1488.3 98.7 Q 1487.4 97.4 1486.3 96.2 L 1486.3 96.2 L 1486.3 96.2 Q 1478.9 88.1 1469.1 88.1 L 1469.1 88.1 L 1469.1 88.1 Q 1462.7 88.1 1457.4 91.9 L 1457.4 91.9 L 1457.4 91.9 Q 1448.8 98 1448.8 109.9 L 1448.8 109.9 L 1448.8 109.9 Q 1448.8 123.7 1461.3 136.5 L 1461.3 136.5 L 1461.3 136.5 Q 1463.4 138.8 1465.7 141.1 L 1465.7 141.1 L 1465.7 141.1 Q 1473.5 148.9 1477 153.65 L 1477 153.65 L 1477 153.65 Q 1480.5 158.4 1482.3 162.25 L 1482.3 162.25 L 1482.3 162.25 Q 1482.906 163.546 1483.364 164.507 Z  M 1489 154.6 L 1488.5 154.6 L 1488.5 154.6 L 1510.6 128.5 L 1510.6 128.5 Q 1514.8 123.9 1517.1 118.3 L 1517.1 118.3 L 1517.1 118.3 Q 1519 113.4 1519 109.5 L 1519 109.5 L 1519 109.5 Q 1519 105.1 1516.8 102.1 L 1516.8 102.1 L 1516.8 102.1 Q 1513.3 97.1 1507 97.1 L 1507 97.1 L 1507 97.1 Q 1501.7 97.1 1499.15 99.7 L 1499.15 99.7 L 1499.15 99.7 Q 1496.6 102.3 1494 106.3 L 1494 106.3 L 1494 106.3 Q 1491.4 110.3 1488.3 110.3 L 1488.3 110.3 L 1488.3 110.3 Q 1485.3 110.3 1482.9 106.45 L 1482.9 106.45 L 1482.9 106.45 Q 1480.5 102.6 1477.7 100 L 1477.7 100 L 1477.7 100 Q 1474.9 97.4 1469.6 97.4 L 1469.6 97.4 L 1469.6 97.4 Q 1463.2 97.4 1460.35 101.4 L 1460.35 101.4 L 1460.35 101.4 Q 1457.5 105.4 1457.5 109.5 L 1457.5 109.5 L 1457.5 109.5 Q 1457.5 113.4 1459.75 118.8 L 1459.75 118.8 L 1459.75 118.8 Q 1462 124.2 1466.2 128.8 L 1466.2 128.8 Q 1485.2 148 1489 154.6 L 1489 154.6 Z " fill-rule="evenodd" fill="rgb(243,215,224)"/><g><path d=" M 1389 196 C 1389 240.705 1400.65 277 1415 277 C 1429.35 277 1441 240.705 1441 196 C 1441 151.295 1429.35 115 1415 115 C 1400.65 115 1389 151.295 1389 196 Z " fill="rgb(216,229,239)"/><path d=" M 1229 277 L 1415 277 L 1415 202.733 L 1415 115 L 1229 115 L 1229 277 Z " fill="rgb(216,229,239)"/><path d=" M 1203 196 C 1203 240.705 1214.65 277 1229 277 C 1243.35 277 1255 240.705 1255 196 C 1255 151.295 1243.35 115 1229 115 C 1214.65 115 1203 151.295 1203 196 Z " fill="rgb(146,170,190)"/></g><g><path d=" M 1578.775 212.483 C 1562.105 253.964 1537.761 283.296 1524.446 277.945 C 1511.131 272.594 1513.856 234.573 1530.526 193.092 C 1547.196 151.612 1571.54 122.279 1584.855 127.63 C 1598.17 132.981 1595.446 171.002 1578.775 212.483 Z " fill="rgb(216,229,239)"/><path d=" M 1697.03 347.304 L 1524.446 277.945 L 1552.14 209.035 L 1584.855 127.63 L 1757.44 196.988 L 1697.03 347.304 Z " fill="rgb(216,229,239)"/><path d=" M 1751.36 281.841 C 1734.689 323.322 1710.345 352.655 1697.03 347.304 C 1683.716 341.953 1686.44 303.932 1703.11 262.451 C 1719.781 220.97 1744.125 191.637 1757.44 196.988 C 1770.754 202.339 1768.03 240.361 1751.36 281.841 Z " fill="rgb(146,170,190)"/></g></g><g><g><path d=" M 1565.443 803 C 1610.148 803 1646.443 814.65 1646.443 829 C 1646.443 843.35 1610.148 855 1565.443 855 C 1520.738 855 1484.443 843.35 1484.443 829 C 1484.443 814.65 1520.738 803 1565.443 803 Z " fill="rgb(216,229,239)"/><path d=" M 1646.443 663 L 1646.443 829 L 1572.176 849 L 1484.443 829 L 1484.443 663 L 1646.443 663 Z " fill="rgb(216,229,239)"/><path d=" M 1565.443 637 C 1610.148 637 1646.443 648.65 1646.443 663 C 1646.443 677.35 1610.148 689 1565.443 689 C 1520.738 689 1484.443 677.35 1484.443 663 C 1484.443 648.65 1520.738 637 1565.443 637 Z " fill="rgb(146,170,190)"/></g><path d=" M 1561.326 616.015 C 1564.33 612.973 1568.424 611.256 1572.699 611.243 C 1580.017 611.249 1586.416 616.174 1588.295 623.246 C 1589.025 623.146 1589.744 623.088 1590.451 623.088 C 1598.668 623.097 1605.578 629.255 1606.529 637.416 C 1608.245 637.077 1609.999 636.888 1611.772 636.888 C 1626.345 636.888 1638.247 648.373 1639 662.756 L 1486 662.756 C 1486.862 658.941 1489.2 655.623 1492.502 653.527 C 1492.548 651.684 1493.401 647.991 1496.419 644.973 C 1498.273 643.131 1501.619 640.94 1507.042 640.94 L 1507.12 640.94 C 1508.293 640.953 1509.46 641.103 1510.598 641.389 C 1514.762 637.446 1520.216 635.148 1525.947 634.922 C 1528.963 628.532 1535.033 624.124 1542.042 623.235 C 1543.496 617.165 1549.512 614.071 1555.58 614.399 Q 1557.691 614.514 1561.326 616.015 Z " fill="rgb(146,170,190)"/><g><path d=" M 1577.163 582.398 C 1571.169 586.678 1565.637 593.569 1565.505 604.437 L 1565.505 604.437 L 1560.249 602.685 C 1560.005 593.955 1558.107 585.829 1554.61 578.378 L 1559.64 576.875 L 1559.639 576.88 L 1559.64 576.875 C 1561.505 581.005 1562.926 585.316 1563.878 589.742 C 1566.942 583.951 1571.569 579.827 1576.17 576.932 L 1577.163 582.398 L 1577.163 582.398 Z " fill="rgb(144,67,7)"/><path d=" M 1577.163 582.398 C 1571.169 586.678 1565.637 593.569 1565.505 604.437 L 1565.505 634.437 L 1560.249 632.685 C 1560.131 628.461 1560.7 617.357 1559.813 606.174 C 1558.868 594.244 1556.415 582.224 1554.61 578.378 L 1559.64 576.875 L 1559.639 576.88 L 1559.64 576.875 C 1561.505 581.005 1562.926 585.316 1563.878 589.742 C 1566.942 583.951 1571.569 579.827 1576.17 576.932 L 1577.163 582.398 L 1577.163 582.398 Z " fill="rgb(144,67,7)"/><path d=" M 1577.199 582.372 C 1579.286 583.554 1586.565 587.316 1594.399 587.316 C 1596.885 587.316 1599.445 586.938 1601.889 585.97 C 1613.253 581.508 1617.534 566.508 1617.717 565.874 L 1618.239 563.969 L 1616.556 562.939 C 1615.995 562.602 1602.635 554.522 1591.281 558.994 C 1582.364 562.511 1577.82 572.477 1576.189 576.919 L 1577.163 582.398 C 1577.187 582.38 1577.175 582.389 1577.163 582.398 L 1577.199 582.372 Z " fill="rgb(164,199,118)"/><path d=" M 1559.64 576.875 L 1559.813 575.871 C 1559.975 574.924 1563.654 552.454 1551.598 540.265 C 1544.058 532.642 1532.439 531.134 1524.552 531.103 L 1524.552 531.103 C 1519.822 531.082 1516.431 531.601 1516.073 531.664 L 1514.229 531.958 L 1513.913 533.792 C 1513.749 534.75 1510.07 557.22 1522.136 569.411 C 1529.749 577.094 1541.52 578.56 1549.407 578.56 C 1551.455 578.56 1553.218 578.469 1554.596 578.346 C 1554.606 578.367 1554.601 578.357 1554.596 578.346 L 1559.64 576.875 L 1559.64 576.875 Z " fill="rgb(164,199,118)"/></g></g></g></svg>