<?xml version="1.0" standalone="no"?>
<!DOCTYPE svg PUBLIC "-//W3C//DTD SVG 20010904//EN"
 "http://www.w3.org/TR/2001/REC-SVG-20010904/DTD/svg10.dtd">
<svg version="1.0" xmlns="http://www.w3.org/2000/svg"
 width="310.000000pt" height="310.000000pt" viewBox="0 0 310.000000 310.000000"
 preserveAspectRatio="xMidYMid meet">
<metadata>
Created by potrace 1.11, written by Peter Selinger 2001-2013
</metadata>
<g transform="translate(0.000000,310.000000) scale(0.100000,-0.100000)"
fill="#000000" stroke="none">
<path d="M1452 2770 c-146 -39 -324 -152 -475 -303 -340 -341 -654 -927 -758
-1417 -30 -140 -32 -347 -5 -435 35 -116 93 -197 170 -238 63 -33 182 -31 259
5 102 48 209 130 343 263 193 192 388 437 618 778 55 81 101 145 103 143 2 -2
-6 -41 -18 -87 -30 -119 -37 -346 -15 -460 23 -119 71 -211 153 -296 87 -89
145 -123 222 -130 70 -7 132 7 218 48 169 80 428 324 626 589 65 87 96 152 97
198 0 27 -4 32 -24 32 -18 0 -48 -27 -119 -107 -141 -161 -370 -380 -485 -466
-243 -181 -392 -203 -484 -72 -16 23 -37 77 -49 125 -30 116 -23 333 15 495
63 270 190 589 326 819 57 96 64 142 29 177 -16 16 -30 20 -60 17 l-40 -4 -31
66 c-40 84 -141 186 -221 224 -121 56 -266 70 -395 36z m333 -129 c38 -17 77
-46 102 -75 43 -48 113 -173 113 -200 0 -17 -261 -474 -378 -661 -354 -567
-780 -1057 -1026 -1180 -76 -39 -155 -47 -192 -20 -56 39 -80 169 -63 340 33
337 207 764 471 1160 280 418 590 663 843 664 57 1 81 -4 130 -28z"/>
</g>
</svg>
